# Blender v2.92.0 OBJ File: 'mech_pod.blend'
# www.blender.org
mtllib missile_sm.mtl
o missile_sm_Cube.010
v 0.000000 -0.016200 0.210000
v 0.011455 -0.011455 0.210000
v 0.016200 0.000000 0.210000
v 0.011455 0.011455 0.210000
v 0.000000 0.016200 0.210000
v -0.011455 0.011455 0.210000
v -0.016200 0.000000 0.210000
v -0.011455 -0.011455 0.210000
v 0.000000 -0.027000 0.180000
v -0.019092 -0.019092 0.180000
v -0.027000 0.000000 0.180000
v -0.019092 0.019092 0.180000
v 0.000000 0.027000 0.180000
v 0.019092 0.019092 0.180000
v 0.027000 0.000000 0.180000
v 0.019092 -0.019092 0.180000
v -0.000000 -0.027000 -0.210000
v -0.019092 -0.019092 -0.210000
v -0.027000 0.000000 -0.210000
v -0.019092 0.019092 -0.210000
v -0.000000 0.027000 -0.210000
v 0.019092 0.019092 -0.210000
v 0.027000 0.000000 -0.210000
v 0.019092 -0.019092 -0.210000
vt 0.468750 0.179688
vt 0.468750 0.148438
vt 0.453125 0.132812
vt 0.421875 0.132812
vt 0.398438 0.148438
vt 0.398438 0.179688
vt 0.421875 0.203125
vt 0.453125 0.203125
vt 0.250000 0.921875
vt 0.296875 0.921875
vt 0.296875 0.007812
vt 0.250000 0.007812
vt 0.140625 0.992188
vt 0.148438 0.921875
vt 0.101562 0.921875
vt 0.109375 0.992188
vt 0.039062 0.992188
vt 0.054688 0.921875
vt 0.007812 0.921875
vt 0.015625 0.992188
vt 0.335938 0.992188
vt 0.343750 0.921875
vt 0.304688 0.992188
vt 0.234375 0.992188
vt 0.195312 0.921875
vt 0.210938 0.992188
vt 0.187500 0.992188
vt 0.156250 0.992188
vt 0.093750 0.992188
vt 0.062500 0.992188
vt 0.382812 0.992188
vt 0.390625 0.921875
vt 0.351562 0.992188
vt 0.289062 0.992188
vt 0.257812 0.992188
vt 0.195312 0.007812
vt 0.148438 0.007812
vt 0.101562 0.007812
vt 0.054688 0.007812
vt 0.007812 0.007812
vt 0.343750 0.007812
vt 0.390625 0.007812
vt 0.484375 0.007812
vt 0.437500 0.007812
vt 0.398438 0.039062
vt 0.398438 0.085938
vt 0.437500 0.125000
vt 0.484375 0.125000
vt 0.515625 0.085938
vt 0.515625 0.039062
vn 0.0000 0.0000 1.0000
vn -0.9239 -0.3827 0.0000
vn 0.8767 -0.3631 0.3156
vn 0.3631 0.8767 0.3156
vn -0.8767 0.3631 0.3156
vn -0.3631 -0.8767 0.3156
vn 0.3631 -0.8767 0.3156
vn 0.8767 0.3631 0.3156
vn -0.3631 0.8767 0.3156
vn -0.8767 -0.3631 0.3156
vn 0.3827 -0.9239 -0.0000
vn 0.9239 -0.3827 -0.0000
vn 0.3827 0.9239 -0.0000
vn -0.9239 0.3827 0.0000
vn 0.9239 0.3827 -0.0000
vn -0.3827 0.9239 0.0000
vn 0.0000 0.0000 -1.0000
vn -0.3827 -0.9239 0.0000
usemtl mat_missile_sm
s off
f 1/1/1 2/2/1 3/3/1 4/4/1 5/5/1 6/6/1 7/7/1 8/8/1
f 10/9/2 11/10/2 19/11/2 18/12/2
f 2/13/3 16/14/3 15/15/3 3/16/3
f 4/17/4 14/18/4 13/19/4 5/20/4
f 6/21/5 12/22/5 11/10/5 7/23/5
f 8/24/6 10/9/6 9/25/6 1/26/6
f 1/27/7 9/25/7 16/14/7 2/28/7
f 3/29/8 15/15/8 14/18/8 4/30/8
f 5/31/9 13/32/9 12/22/9 6/33/9
f 7/34/10 11/10/10 10/9/10 8/35/10
f 16/14/11 9/25/11 17/36/11 24/37/11
f 16/14/12 24/37/12 23/38/12 15/15/12
f 13/19/13 14/18/13 22/39/13 21/40/13
f 11/10/14 12/22/14 20/41/14 19/11/14
f 14/18/15 15/15/15 23/38/15 22/39/15
f 12/22/16 13/32/16 21/42/16 20/41/16
f 17/43/17 18/44/17 19/45/17 20/46/17 21/47/17 22/48/17 23/49/17 24/50/17
f 9/25/18 10/9/18 18/12/18 17/36/18
