# Blender v2.92.0 OBJ File: 'mech_pod.blend'
# www.blender.org
mtllib missile_lg.mtl
o missile_lg_Cube.008
v 0.000000 -0.032400 0.300000
v 0.022910 -0.022910 0.300000
v 0.032400 0.000000 0.300000
v 0.022910 0.022910 0.300000
v 0.000000 0.032400 0.300000
v -0.022910 0.022910 0.300000
v -0.032400 0.000000 0.300000
v -0.022910 -0.022910 0.300000
v 0.000000 -0.054000 0.270000
v -0.038184 -0.038184 0.270000
v -0.054000 0.000000 0.270000
v -0.038184 0.038184 0.270000
v 0.000000 0.054000 0.270000
v 0.038184 0.038184 0.270000
v 0.054000 0.000000 0.270000
v 0.038184 -0.038184 0.270000
v -0.000000 -0.054000 -0.270000
v -0.038184 -0.038184 -0.270000
v -0.054000 0.000000 -0.270000
v -0.038184 0.038184 -0.270000
v -0.000000 0.054000 -0.270000
v 0.038184 0.038184 -0.270000
v 0.054000 0.000000 -0.270000
v 0.038184 -0.038184 -0.270000
vt 0.687500 0.218750
vt 0.656250 0.187500
vt 0.617188 0.187500
vt 0.585938 0.218750
vt 0.585938 0.257812
vt 0.617188 0.289062
vt 0.656250 0.289062
vt 0.687500 0.257812
vt 0.359375 0.929688
vt 0.429688 0.929688
vt 0.429688 0.007812
vt 0.359375 0.007812
vt 0.203125 0.992188
vt 0.218750 0.929688
vt 0.148438 0.929688
vt 0.164062 0.992188
vt 0.062500 0.992188
vt 0.078125 0.929688
vt 0.007812 0.929688
vt 0.015625 0.992188
vt 0.484375 0.992188
vt 0.500000 0.929688
vt 0.445312 0.992188
vt 0.343750 0.992188
vt 0.289062 0.929688
vt 0.304688 0.992188
vt 0.273438 0.992188
vt 0.234375 0.992188
vt 0.132812 0.992188
vt 0.093750 0.992188
vt 0.562500 0.992188
vt 0.570312 0.929688
vt 0.515625 0.992188
vt 0.414062 0.992188
vt 0.375000 0.992188
vt 0.289062 0.007812
vt 0.218750 0.007812
vt 0.148438 0.007812
vt 0.078125 0.007812
vt 0.007812 0.007812
vt 0.500000 0.007812
vt 0.570312 0.007812
vt 0.757812 0.125000
vt 0.757812 0.054688
vt 0.703125 0.007812
vt 0.632812 0.007812
vt 0.585938 0.054688
vt 0.585938 0.125000
vt 0.632812 0.179688
vt 0.703125 0.179688
vn 0.0000 0.0000 1.0000
vn -0.9239 -0.3827 0.0000
vn 0.7692 -0.3186 0.5538
vn 0.3186 0.7692 0.5539
vn -0.7692 0.3186 0.5539
vn -0.3186 -0.7692 0.5539
vn 0.3186 -0.7692 0.5539
vn 0.7692 0.3186 0.5539
vn -0.3186 0.7692 0.5539
vn -0.7692 -0.3186 0.5539
vn 0.3827 -0.9239 -0.0000
vn 0.9239 -0.3827 -0.0000
vn 0.3827 0.9239 -0.0000
vn -0.9239 0.3827 0.0000
vn 0.9239 0.3827 -0.0000
vn -0.3827 0.9239 0.0000
vn 0.0000 -0.0000 -1.0000
vn -0.3827 -0.9239 0.0000
usemtl mat_missile_lg
s off
f 1/1/1 2/2/1 3/3/1 4/4/1 5/5/1 6/6/1 7/7/1 8/8/1
f 10/9/2 11/10/2 19/11/2 18/12/2
f 2/13/3 16/14/3 15/15/3 3/16/3
f 4/17/4 14/18/4 13/19/4 5/20/4
f 6/21/5 12/22/5 11/10/5 7/23/5
f 8/24/6 10/9/6 9/25/6 1/26/6
f 1/27/7 9/25/7 16/14/7 2/28/7
f 3/29/8 15/15/8 14/18/8 4/30/8
f 5/31/9 13/32/9 12/22/9 6/33/9
f 7/34/10 11/10/10 10/9/10 8/35/10
f 16/14/11 9/25/11 17/36/11 24/37/11
f 16/14/12 24/37/12 23/38/12 15/15/12
f 13/19/13 14/18/13 22/39/13 21/40/13
f 11/10/14 12/22/14 20/41/14 19/11/14
f 14/18/15 15/15/15 23/38/15 22/39/15
f 12/22/16 13/32/16 21/42/16 20/41/16
f 17/43/17 18/44/17 19/45/17 20/46/17 21/47/17 22/48/17 23/49/17 24/50/17
f 9/25/18 10/9/18 18/12/18 17/36/18
