# Blender v2.92.0 OBJ File: 'mech_weapon.blend'
# www.blender.org
mtllib melee2.mtl
o melee2_Cube.019
v 0.084000 -0.100000 -0.350000
v -0.084000 -0.100000 -0.100000
v -0.105000 0.000000 -0.350000
v 0.084000 -0.100000 -0.100000
v -0.105000 0.000000 -0.100000
v -0.084000 -0.100000 -0.350000
v 0.105000 0.000000 -0.100000
v 0.105000 0.000000 -0.350000
v 0.050000 -0.050000 -0.800000
v 0.050000 0.050000 -0.800000
v 0.050000 -0.050000 -0.400000
v 0.050000 0.050000 -0.400000
v -0.050000 -0.050000 -0.800000
v -0.050000 0.050000 -0.800000
v -0.050000 -0.050000 -0.400000
v -0.050000 0.050000 -0.400000
v -0.000000 0.000000 -0.900000
v -0.050000 0.070000 -0.400000
v 0.050000 0.070000 -0.400000
v 0.060000 -0.100000 -0.400000
v -0.075000 0.000000 -0.400000
v -0.060000 -0.100000 -0.400000
v 0.075000 0.000000 -0.400000
v -0.050000 0.100000 -0.350000
v 0.050000 0.100000 -0.350000
v -0.050000 0.100000 -0.100000
v 0.050000 0.100000 -0.100000
v 0.036000 -0.119409 -0.056417
v -0.036000 -0.119409 -0.056417
v -0.072000 -0.179638 -0.072555
v -0.036000 -0.239867 -0.088693
v 0.036000 -0.239867 -0.088693
v 0.072000 -0.179638 -0.072555
v -0.036000 -0.082139 -0.195510
v 0.036000 -0.082139 -0.195510
v -0.072000 -0.142368 -0.211648
v -0.036000 -0.202597 -0.227787
v 0.036000 -0.202597 -0.227787
v 0.072000 -0.142368 -0.211648
v -0.028800 -0.138909 -0.031826
v 0.028800 -0.138909 -0.031826
v -0.057600 -0.187092 -0.044736
v -0.028800 -0.235275 -0.057647
v 0.028800 -0.235275 -0.057647
v 0.057600 -0.187092 -0.044736
v -0.028800 -0.086731 -0.226556
v 0.028800 -0.086731 -0.226556
v -0.057600 -0.134914 -0.239467
v -0.028800 -0.183097 -0.252378
v 0.028800 -0.183097 -0.252378
v 0.057600 -0.134914 -0.239467
v -0.040000 -0.080000 0.050000
v -0.040000 0.080000 0.050000
v -0.050000 -0.100000 -0.000000
v -0.050000 0.100000 -0.000000
v 0.040000 -0.080000 0.050000
v 0.040000 0.080000 0.050000
v 0.050000 -0.100000 -0.000000
v 0.050000 0.100000 -0.000000
v -0.050000 0.050000 -0.000000
v 0.050000 0.050000 -0.000000
v -0.050000 -0.050000 -0.000000
v 0.050000 -0.050000 -0.000000
v -0.050000 -0.050000 -0.100000
v -0.050000 -0.100000 -0.100000
v 0.050000 -0.100000 -0.100000
v -0.050000 0.100000 -0.100000
v 0.050000 0.100000 -0.100000
v 0.050000 -0.050000 -0.100000
v -0.050000 0.050000 -0.100000
v 0.050000 0.050000 -0.100000
v 0.084000 -0.150000 -0.350000
v -0.084000 -0.200000 -0.250000
v 0.084000 -0.200000 -0.250000
v -0.084000 -0.150000 -0.350000
v 0.060000 -0.120000 -0.400000
v -0.060000 -0.120000 -0.400000
vt 0.244197 0.435254
vt 0.345607 0.435254
vt 0.345607 0.494385
vt 0.244197 0.494385
vt 0.128461 0.181729
vt 0.128461 0.435254
vt 0.024839 0.435254
vt 0.024839 0.181729
vt 0.461343 0.435254
vt 0.461343 0.181729
vt 0.564965 0.181729
vt 0.564965 0.435254
vt 0.570102 0.491262
vt 0.467596 0.494054
vt 0.447495 0.492741
vt 0.372264 0.488036
vt 0.757486 0.418127
vt 0.656076 0.418128
vt 0.600300 0.316718
vt 0.621596 0.215308
vt 0.791965 0.215308
vt 0.813261 0.316718
vt 0.122208 0.494054
vt 0.019702 0.491262
vt 0.345607 0.181729
vt 0.217540 0.488036
vt 0.142309 0.492741
vt 0.435883 0.053041
vt 0.435883 0.154450
vt 0.030244 0.154451
vt 0.030244 0.053041
vt 0.030244 0.154451
vt 0.030244 0.053041
vt 0.435883 0.053041
vt 0.435883 0.154450
vt 0.435883 0.154450
vt 0.435883 0.053041
vt 0.549263 0.103745
vt 0.030244 0.154451
vt 0.030244 0.053041
vt 0.435883 0.053041
vt 0.435883 0.154450
vt 0.030244 0.154451
vt 0.030244 0.053041
vt 0.645027 0.984383
vt 0.543617 0.984383
vt 0.518265 0.913396
vt 0.533476 0.811987
vt 0.655168 0.811987
vt 0.670380 0.913396
vt 0.244197 0.181729
vt 0.476907 0.676220
vt 0.403892 0.676220
vt 0.411193 0.644393
vt 0.469605 0.644393
vt 0.403892 0.822250
vt 0.476907 0.822250
vt 0.469606 0.854076
vt 0.411194 0.854076
vt 0.476907 0.822250
vt 0.403892 0.822250
vt 0.403892 0.676219
vt 0.476907 0.676219
vt 0.476907 0.822249
vt 0.403892 0.822250
vt 0.403892 0.676220
vt 0.476907 0.676220
vt 0.476907 0.822250
vt 0.403892 0.822250
vt 0.403892 0.676219
vt 0.476907 0.676219
vt 0.403892 0.676220
vt 0.476907 0.676220
vt 0.476907 0.822250
vt 0.403892 0.822250
vt 0.403892 0.676219
vt 0.476907 0.676219
vt 0.476907 0.822250
vt 0.403892 0.822250
vt 0.443066 0.993862
vt 0.392480 0.964656
vt 0.392480 0.906244
vt 0.443066 0.877038
vt 0.493653 0.906244
vt 0.493653 0.964656
vt 0.411194 0.644393
vt 0.469606 0.644393
vt 0.411193 0.644393
vt 0.469605 0.644393
vt 0.411194 0.644393
vt 0.469606 0.644393
vt 0.411193 0.644393
vt 0.469605 0.644393
vt 0.411194 0.644393
vt 0.469606 0.644393
vt 0.443067 0.993862
vt 0.392480 0.964656
vt 0.392480 0.906244
vt 0.443066 0.877038
vt 0.493653 0.906244
vt 0.493653 0.964656
vt 0.469605 0.854076
vt 0.411193 0.854076
vt 0.469606 0.854076
vt 0.411194 0.854076
vt 0.469605 0.854076
vt 0.411193 0.854076
vt 0.469606 0.854076
vt 0.411194 0.854076
vt 0.469605 0.854076
vt 0.411193 0.854076
vt 0.080735 0.664319
vt 0.080735 0.826575
vt 0.029025 0.846857
vt 0.029025 0.796152
vt 0.029025 0.694742
vt 0.029025 0.644037
vt 0.222708 0.609708
vt 0.172004 0.609708
vt 0.172004 0.508299
vt 0.222708 0.508299
vt 0.213572 0.644037
vt 0.213572 0.694742
vt 0.213572 0.796152
vt 0.213572 0.846857
vt 0.161862 0.826575
vt 0.161863 0.664319
vt 0.070594 0.609708
vt 0.172003 0.881186
vt 0.070594 0.881186
vt 0.261878 0.883913
vt 0.261878 0.782503
vt 0.363288 0.782503
vt 0.363287 0.883913
vt 0.363287 0.985323
vt 0.261878 0.985323
vt 0.070594 0.508299
vt 0.222708 0.881186
vt 0.222708 0.982596
vt 0.172003 0.982596
vt 0.070594 0.982596
vt 0.261878 0.681093
vt 0.363287 0.681093
vt 0.019889 0.609708
vt 0.019889 0.508299
vt 0.019889 0.881186
vt 0.019889 0.982596
vt 0.784768 0.851334
vt 0.632386 0.775143
vt 0.714145 0.611624
vt 0.866527 0.687815
vt 0.734427 0.469650
vt 0.779422 0.435904
vt 0.791591 0.452130
vt 0.764850 0.510214
vt 0.917232 0.586405
vt 0.813063 0.468210
vt 0.921908 0.522632
vt 0.967937 0.530162
vt 0.967937 0.586405
vt 0.947655 0.530162
vt 0.967937 0.839930
vt 0.531607 0.621765
vt 0.822134 0.450069
vt 0.930978 0.504491
vn -0.0000 0.8575 -0.5145
vn -0.9787 -0.2055 0.0000
vn 0.9787 -0.2055 -0.0000
vn 0.8691 -0.1564 -0.4693
vn 0.8403 0.3955 -0.3707
vn 0.0000 -0.0000 1.0000
vn -0.8691 -0.1564 -0.4693
vn 0.8762 0.4819 -0.0000
vn -0.8403 0.3955 -0.3707
vn 1.0000 0.0000 -0.0000
vn -1.0000 0.0000 0.0000
vn 0.0000 0.8944 -0.4472
vn 0.0000 -1.0000 0.0000
vn 0.0000 1.0000 0.0000
vn -0.8944 0.0000 -0.4472
vn 0.8944 0.0000 -0.4472
vn 0.0000 -0.8944 -0.4472
vn -0.0000 -0.0000 -1.0000
vn -0.8762 0.4819 0.0000
vn 0.7947 0.3404 0.5026
vn 0.7947 -0.3404 -0.5026
vn 0.8660 0.4830 0.1294
vn 0.0000 -0.9659 -0.2588
vn -0.8660 0.4830 0.1294
vn 0.8660 -0.4830 -0.1294
vn -0.8660 -0.4830 -0.1294
vn 0.0000 0.9659 0.2588
vn 0.0000 -0.2588 0.9659
vn 0.0000 -0.9892 0.1463
vn -0.7947 0.3404 0.5026
vn 0.7947 -0.5460 0.2651
vn -0.7947 -0.5460 0.2651
vn 0.0000 0.7835 0.6213
vn -0.0000 0.2588 -0.9659
vn -0.7947 -0.3404 -0.5026
vn 0.0000 0.9892 -0.1463
vn 0.7947 0.5460 -0.2651
vn 0.0000 -0.7836 -0.6213
vn -0.7947 0.5460 -0.2651
vn -0.9806 0.0000 0.1961
vn 0.9806 0.0000 0.1961
vn 0.0000 -0.9285 0.3714
vn 0.0000 0.9285 0.3714
vn 0.0000 -0.8321 0.5547
vn -0.9015 0.0000 -0.4327
vn -0.0000 -0.8575 -0.5145
vn 0.9015 0.0000 -0.4327
usemtl mat_melee2
s off
f 24/1/1 25/2/1 19/3/1 18/4/1
f 5/5/2 3/6/2 6/7/2 2/8/2
f 8/9/3 7/10/3 4/11/3 1/12/3
f 8/9/4 1/12/4 20/13/4 23/14/4
f 25/2/5 8/9/5 23/15/5 19/16/5
f 27/17/6 26/18/6 5/19/6 2/20/6 4/21/6 7/22/6
f 6/7/7 3/6/7 21/23/7 22/24/7
f 27/25/8 7/10/8 8/9/8 25/2/8
f 3/6/9 24/1/9 18/26/9 21/27/9
f 9/28/10 10/29/10 12/30/10 11/31/10
f 15/32/11 16/33/11 14/34/11 13/35/11
f 14/36/12 10/37/12 17/38/12
f 11/39/13 15/40/13 13/41/13 9/42/13
f 16/43/14 12/44/14 10/37/14 14/36/14
f 13/35/15 14/34/15 17/38/15
f 10/29/16 9/28/16 17/38/16
f 9/42/17 13/41/17 17/38/17
f 18/45/18 19/46/18 23/47/18 20/48/18 22/49/18 21/50/18
f 27/25/14 25/2/14 24/1/14 26/51/14
f 5/5/19 26/51/19 24/1/19 3/6/19
f 33/52/20 28/53/20 41/54/20 45/55/20
f 39/56/21 38/57/21 50/58/21 51/59/21
f 28/53/22 33/52/22 39/60/22 35/61/22
f 32/62/23 31/63/23 37/64/23 38/65/23
f 30/66/24 29/67/24 34/68/24 36/69/24
f 33/70/25 32/71/25 38/57/25 39/56/25
f 31/72/26 30/73/26 36/74/26 37/75/26
f 29/76/27 28/77/27 35/78/27 34/79/27
f 40/80/28 42/81/28 43/82/28 44/83/28 45/84/28 41/85/28
f 31/63/29 32/62/29 44/86/29 43/87/29
f 29/67/30 30/66/30 42/88/30 40/89/30
f 32/71/31 33/70/31 45/90/31 44/91/31
f 30/73/32 31/72/32 43/92/32 42/93/32
f 28/77/33 29/76/33 40/94/33 41/95/33
f 46/96/34 47/97/34 51/98/34 50/99/34 49/100/34 48/101/34
f 37/75/35 36/74/35 48/102/35 49/103/35
f 34/79/36 35/78/36 47/104/36 46/105/36
f 35/61/37 39/60/37 51/106/37 47/107/37
f 38/65/38 37/64/38 49/108/38 50/109/38
f 36/69/39 34/68/39 46/110/39 48/111/39
f 52/112/40 53/113/40 55/114/40 60/115/40 62/116/40 54/117/40
f 63/118/10 58/119/10 66/120/10 69/121/10
f 58/122/41 63/123/41 61/124/41 59/125/41 57/126/41 56/127/41
f 56/127/6 57/126/6 53/113/6 52/112/6
f 54/128/42 58/119/42 56/127/42 52/112/42
f 59/129/43 55/130/43 53/113/43 57/126/43
f 62/131/18 60/132/18 61/133/18 63/134/18
f 62/131/14 63/134/14 69/135/14 64/136/14
f 58/119/13 54/128/13 65/137/13 66/120/13
f 59/129/10 61/138/10 71/139/10 68/140/10
f 55/130/14 59/129/14 68/140/14 67/141/14
f 61/133/13 60/132/13 70/142/13 71/143/13
f 54/128/11 62/144/11 64/145/11 65/137/11
f 60/146/11 55/130/11 67/141/11 70/147/11
f 4/148/44 2/149/44 73/150/44 74/151/44
f 6/152/45 22/153/45 77/154/45 75/155/45
f 74/151/17 73/150/17 75/155/17 72/156/17
f 75/155/46 77/157/46 76/158/46 72/156/46
f 20/159/47 1/160/47 72/156/47 76/161/47
f 1/160/10 4/162/10 74/151/10 72/156/10
f 2/163/11 6/152/11 75/155/11 73/150/11
f 22/164/18 20/165/18 76/158/18 77/157/18
