# Blender v2.92.0 OBJ File: 'mech_weapon.blend'
# www.blender.org
mtllib melee1.mtl
o melee1_Cube.026
v 0.067500 0.100000 -0.300000
v 0.025000 -0.150000 -0.250000
v 0.067500 -0.100000 -0.300000
v -0.067500 -0.100000 -0.100000
v -0.067500 0.100000 -0.300000
v 0.067500 -0.100000 -0.100000
v -0.067500 0.100000 -0.100000
v -0.067500 -0.100000 -0.300000
v 0.067500 0.100000 -0.100000
v -0.025000 -0.150000 -0.250000
v 0.025000 -0.150000 -0.150000
v -0.025000 -0.150000 -0.150000
v 0.020000 -0.000000 -0.550000
v 0.020000 0.106066 -0.506066
v 0.020000 0.150000 -0.400000
v 0.020000 0.106066 -0.293934
v 0.020000 -0.000000 -0.250000
v 0.020000 -0.106066 -0.293934
v 0.020000 -0.150000 -0.400000
v 0.020000 -0.106066 -0.506066
v -0.020000 -0.000000 -0.550000
v -0.020000 0.106066 -0.506066
v -0.020000 0.150000 -0.400000
v -0.020000 0.106066 -0.293934
v -0.020000 -0.000000 -0.250000
v -0.020000 -0.106066 -0.293934
v -0.020000 -0.150000 -0.400000
v -0.020000 -0.106066 -0.506066
v 0.010000 0.162114 -0.363916
v 0.010000 0.140147 -0.310883
v -0.010000 0.140147 -0.310883
v -0.010000 0.162114 -0.363916
v 0.010000 0.036084 -0.562113
v 0.010000 0.089117 -0.540147
v -0.010000 0.089117 -0.540147
v -0.010000 0.036084 -0.562113
v 0.010000 -0.089117 -0.540147
v 0.010000 -0.036084 -0.562113
v -0.010000 -0.036084 -0.562113
v -0.010000 -0.089117 -0.540147
v 0.010000 -0.140147 -0.310883
v 0.010000 -0.162114 -0.363916
v -0.010000 -0.162114 -0.363916
v -0.010000 -0.140147 -0.310883
v 0.010000 0.089117 -0.259854
v 0.010000 0.036084 -0.237887
v -0.010000 0.036084 -0.237887
v -0.010000 0.089117 -0.259854
v 0.010000 0.140147 -0.489117
v 0.010000 0.162114 -0.436084
v -0.010000 0.162114 -0.436084
v -0.010000 0.140147 -0.489117
v 0.010000 -0.162114 -0.436084
v 0.010000 -0.140147 -0.489117
v -0.010000 -0.140147 -0.489117
v -0.010000 -0.162114 -0.436084
v 0.010000 -0.036084 -0.237887
v 0.010000 -0.089117 -0.259854
v -0.010000 -0.089117 -0.259854
v -0.010000 -0.036084 -0.237887
v 0.100000 0.009088 -0.149088
v 0.100000 -0.012000 -0.200000
v 0.100000 0.009088 -0.250912
v 0.100000 0.060000 -0.272000
v 0.100000 0.110912 -0.250912
v 0.100000 0.132000 -0.200000
v 0.100000 0.110912 -0.149088
v 0.100000 0.060000 -0.128000
v 0.080000 -0.003640 -0.136360
v 0.080000 -0.030000 -0.200000
v 0.080000 -0.003640 -0.263640
v 0.080000 0.060000 -0.290000
v 0.080000 0.123640 -0.263640
v 0.080000 0.150000 -0.200000
v 0.080000 0.123640 -0.136360
v 0.080000 0.060000 -0.110000
v -0.080000 -0.003640 -0.136360
v -0.080000 -0.030000 -0.200000
v -0.080000 -0.003640 -0.263640
v -0.080000 0.060000 -0.290000
v -0.080000 0.123640 -0.263640
v -0.080000 0.150000 -0.200000
v -0.080000 0.123640 -0.136360
v -0.080000 0.060000 -0.110000
v -0.100000 0.009088 -0.149088
v -0.100000 -0.012000 -0.200000
v -0.100000 0.009088 -0.250912
v -0.100000 0.060000 -0.272000
v -0.100000 0.110912 -0.250912
v -0.100000 0.132000 -0.200000
v -0.100000 0.110912 -0.149088
v -0.100000 0.060000 -0.128000
v 0.020000 -0.000000 -0.430000
v 0.020000 0.021213 -0.421213
v 0.020000 -0.030000 -0.400000
v 0.020000 -0.021213 -0.421213
v 0.050000 -0.021213 -0.421213
v 0.050000 -0.030000 -0.400000
v 0.050000 0.021213 -0.421213
v 0.050000 -0.000000 -0.430000
v 0.060000 -0.016971 -0.416971
v 0.060000 -0.024000 -0.400000
v 0.060000 0.024000 -0.400000
v 0.060000 0.016971 -0.416971
v 0.060000 -0.000000 -0.424000
v 0.050000 0.030000 -0.300000
v 0.060000 -0.024000 -0.300000
v 0.060000 0.024000 -0.300000
v 0.050000 0.030000 -0.400000
v 0.050000 -0.030000 -0.300000
v -0.040000 -0.080000 0.050000
v -0.040000 0.080000 0.050000
v -0.050000 -0.100000 -0.000000
v -0.050000 0.100000 -0.000000
v 0.040000 -0.080000 0.050000
v 0.040000 0.080000 0.050000
v 0.050000 -0.100000 -0.000000
v 0.050000 0.100000 -0.000000
v -0.050000 0.050000 -0.000000
v 0.050000 0.050000 -0.000000
v -0.050000 -0.050000 -0.000000
v 0.050000 -0.050000 -0.000000
v -0.050000 -0.050000 -0.100000
v -0.050000 -0.100000 -0.100000
v 0.050000 -0.100000 -0.100000
v -0.050000 0.100000 -0.100000
v 0.050000 0.100000 -0.100000
v 0.050000 -0.050000 -0.100000
v -0.050000 0.050000 -0.100000
v 0.050000 0.050000 -0.100000
v 0.020000 0.030000 -0.300000
v 0.020000 0.030000 -0.400000
v 0.020000 -0.030000 -0.300000
vt 0.786233 0.667093
vt 0.992658 0.667093
vt 0.992658 0.873517
vt 0.786233 0.873517
vt 0.786233 0.667093
vt 0.992658 0.667093
vt 0.992658 0.873517
vt 0.786233 0.873517
vt 0.837839 0.941247
vt 0.941052 0.941247
vt 0.479031 0.763261
vt 0.519249 0.803479
vt 0.519249 0.860356
vt 0.479031 0.900573
vt 0.422155 0.900573
vt 0.381937 0.860355
vt 0.381937 0.803479
vt 0.422155 0.763261
vt 0.690762 0.946499
vt 0.646896 0.873517
vt 0.742368 0.946499
vt 0.941052 0.941247
vt 0.837839 0.941247
vt 0.467895 0.713391
vt 0.384107 0.629604
vt 0.384107 0.511111
vt 0.467895 0.427324
vt 0.586388 0.427324
vt 0.670175 0.511111
vt 0.670175 0.629604
vt 0.586387 0.713391
vt 0.384107 0.629604
vt 0.384107 0.511111
vt 0.467895 0.427323
vt 0.586388 0.427324
vt 0.670175 0.511111
vt 0.670175 0.629604
vt 0.586388 0.713391
vt 0.467895 0.713391
vt 0.328117 0.602640
vt 0.307474 0.602640
vt 0.307474 0.543393
vt 0.328117 0.543393
vt 0.355907 0.513770
vt 0.355907 0.632263
vt 0.319609 0.494101
vt 0.309967 0.533559
vt 0.279683 0.632263
vt 0.279683 0.513770
vt 0.315982 0.651932
vt 0.325623 0.612474
vt 0.307474 0.543393
vt 0.328117 0.543393
vt 0.328117 0.602639
vt 0.307474 0.602639
vt 0.279683 0.632263
vt 0.279684 0.513770
vt 0.315982 0.651932
vt 0.325623 0.612474
vt 0.355907 0.513770
vt 0.355907 0.632263
vt 0.319609 0.494101
vt 0.309967 0.533559
vt 0.307474 0.543393
vt 0.328116 0.543393
vt 0.328116 0.602640
vt 0.307474 0.602640
vt 0.279683 0.632263
vt 0.279683 0.513770
vt 0.315982 0.651932
vt 0.325623 0.612474
vt 0.355907 0.513770
vt 0.355907 0.632263
vt 0.319608 0.494101
vt 0.309967 0.533559
vt 0.307474 0.543393
vt 0.328117 0.543393
vt 0.328117 0.602639
vt 0.307474 0.602639
vt 0.279683 0.632263
vt 0.279683 0.513770
vt 0.315982 0.651932
vt 0.325623 0.612474
vt 0.355907 0.513770
vt 0.355907 0.632263
vt 0.319609 0.494101
vt 0.309967 0.533559
vt 0.328117 0.602639
vt 0.307474 0.602639
vt 0.307474 0.543393
vt 0.328117 0.543393
vt 0.355907 0.513770
vt 0.355907 0.632263
vt 0.319609 0.494101
vt 0.309967 0.533559
vt 0.279683 0.632263
vt 0.279683 0.513770
vt 0.315982 0.651932
vt 0.325623 0.612474
vt 0.328116 0.602640
vt 0.307474 0.602640
vt 0.307474 0.543393
vt 0.328116 0.543393
vt 0.355907 0.513770
vt 0.355907 0.632263
vt 0.319609 0.494101
vt 0.309967 0.533559
vt 0.279683 0.632263
vt 0.279683 0.513770
vt 0.315982 0.651932
vt 0.325623 0.612474
vt 0.307474 0.543393
vt 0.328116 0.543393
vt 0.328116 0.602640
vt 0.307474 0.602640
vt 0.279683 0.632263
vt 0.279683 0.513770
vt 0.315982 0.651932
vt 0.325623 0.612474
vt 0.355907 0.513770
vt 0.355907 0.632263
vt 0.319609 0.494101
vt 0.309967 0.533559
vt 0.328116 0.602640
vt 0.307474 0.602640
vt 0.307474 0.543393
vt 0.328116 0.543393
vt 0.355907 0.513770
vt 0.355907 0.632263
vt 0.319609 0.494101
vt 0.309967 0.533559
vt 0.279683 0.632263
vt 0.279683 0.513770
vt 0.315982 0.651932
vt 0.325623 0.612474
vt 0.941052 0.992853
vt 0.837840 0.992853
vt 0.786233 0.527756
vt 0.992658 0.527756
vt 0.541680 0.957758
vt 0.541680 0.792618
vt 0.612776 0.792618
vt 0.612776 0.957758
vt 0.548790 0.984604
vt 0.605666 0.984604
vt 0.548790 0.984604
vt 0.541680 0.957758
vt 0.612776 0.957758
vt 0.605666 0.984604
vt 0.548790 0.984604
vt 0.541680 0.957758
vt 0.612776 0.957758
vt 0.605666 0.984604
vt 0.548790 0.984604
vt 0.541680 0.957758
vt 0.612776 0.957758
vt 0.605666 0.984604
vt 0.548790 0.984604
vt 0.541680 0.957758
vt 0.612776 0.957758
vt 0.605666 0.984604
vt 0.548790 0.984604
vt 0.541680 0.957758
vt 0.612776 0.957758
vt 0.605666 0.984604
vt 0.548790 0.984604
vt 0.541680 0.957758
vt 0.612776 0.957758
vt 0.605666 0.984604
vt 0.548790 0.984604
vt 0.541680 0.957758
vt 0.612776 0.957758
vt 0.605666 0.984604
vt 0.541680 0.792618
vt 0.548790 0.765772
vt 0.605666 0.765772
vt 0.612776 0.792618
vt 0.541680 0.792618
vt 0.612776 0.792618
vt 0.541680 0.792618
vt 0.612776 0.792618
vt 0.541680 0.792618
vt 0.612776 0.792618
vt 0.541680 0.792618
vt 0.612776 0.792618
vt 0.541680 0.792618
vt 0.612776 0.792618
vt 0.541680 0.792618
vt 0.612776 0.792618
vt 0.422154 0.763261
vt 0.479031 0.763261
vt 0.519249 0.803479
vt 0.519249 0.860355
vt 0.479031 0.900573
vt 0.422154 0.900573
vt 0.381937 0.860356
vt 0.381937 0.803479
vt 0.548790 0.765772
vt 0.605666 0.765772
vt 0.548790 0.765772
vt 0.605666 0.765772
vt 0.548790 0.765772
vt 0.605666 0.765772
vt 0.548790 0.765772
vt 0.605666 0.765772
vt 0.548790 0.765772
vt 0.605666 0.765772
vt 0.548790 0.765772
vt 0.605666 0.765772
vt 0.548790 0.765772
vt 0.605666 0.765772
vt 0.835498 0.483433
vt 0.811800 0.483433
vt 0.811800 0.452469
vt 0.835498 0.452469
vt 0.788101 0.483433
vt 0.788101 0.452469
vt 0.859197 0.483433
vt 0.859197 0.452469
vt 0.882895 0.483433
vt 0.882895 0.452469
vt 0.861567 0.440668
vt 0.880525 0.440668
vt 0.790471 0.440668
vt 0.809430 0.440668
vt 0.837868 0.440668
vt 0.856827 0.440668
vt 0.814169 0.440668
vt 0.833128 0.440668
vt 0.684889 0.452469
vt 0.684889 0.440432
vt 0.788101 0.440432
vt 0.882895 0.440432
vt 0.986108 0.440432
vt 0.986108 0.452469
vt 0.393534 0.969680
vt 0.386278 0.952165
vt 0.393534 0.934649
vt 0.411049 0.927394
vt 0.514262 0.927394
vt 0.514262 0.976936
vt 0.411049 0.976936
vt 0.742368 0.946499
vt 0.690762 0.946499
vt 0.646897 0.873517
vt 0.646896 0.667093
vt 0.646897 0.667093
vt 0.080801 0.668972
vt 0.080800 0.834111
vt 0.028172 0.854754
vt 0.028172 0.803148
vt 0.028172 0.699935
vt 0.028172 0.648329
vt 0.225298 0.613390
vt 0.173692 0.613390
vt 0.173692 0.510178
vt 0.225298 0.510178
vt 0.215999 0.648329
vt 0.215999 0.699935
vt 0.215999 0.803148
vt 0.215999 0.854754
vt 0.163370 0.834111
vt 0.163370 0.668972
vt 0.070479 0.613390
vt 0.173692 0.889693
vt 0.070479 0.889693
vt 0.263781 0.879075
vt 0.263781 0.775862
vt 0.366993 0.775862
vt 0.366993 0.879075
vt 0.366993 0.982287
vt 0.263781 0.982287
vt 0.070479 0.510178
vt 0.225298 0.889693
vt 0.225298 0.992905
vt 0.173692 0.992905
vt 0.070479 0.992905
vt 0.263781 0.672650
vt 0.366993 0.672650
vt 0.018873 0.613390
vt 0.018873 0.510178
vt 0.018873 0.889693
vt 0.018873 0.992905
vt 0.684889 0.483433
vt 0.986108 0.483433
vn -1.0000 0.0000 0.0000
vn 1.0000 0.0000 -0.0000
vn 0.7619 -0.6476 -0.0000
vn 0.0000 -0.7071 0.7071
vn -0.7619 -0.6476 0.0000
vn 0.0000 0.9239 0.3827
vn 0.9285 0.3431 0.1421
vn 0.0000 0.4453 0.8954
vn -0.9285 0.3431 0.1421
vn 0.0000 0.9480 -0.3183
vn 0.0000 0.3827 -0.9239
vn 0.9285 0.1421 -0.3431
vn 0.0000 0.8954 -0.4453
vn -0.9285 0.1421 -0.3431
vn 0.0000 -0.3183 -0.9480
vn 0.0000 -0.3827 -0.9239
vn 0.9285 -0.1421 -0.3431
vn 0.0000 0.3183 -0.9480
vn -0.9285 -0.1421 -0.3431
vn 0.0000 -0.8954 -0.4453
vn 0.0000 -0.9239 0.3827
vn 0.9285 -0.3431 0.1421
vn 0.0000 -0.9480 -0.3183
vn -0.9285 -0.3431 0.1421
vn 0.0000 -0.4453 0.8954
vn 0.0000 0.3827 0.9239
vn 0.9285 0.1421 0.3431
vn 0.0000 -0.3183 0.9480
vn -0.9285 0.1421 0.3431
vn 0.0000 0.8954 0.4453
vn 0.0000 0.9239 -0.3827
vn 0.9285 0.3431 -0.1421
vn 0.0000 0.9480 0.3183
vn -0.9285 0.3431 -0.1421
vn 0.0000 0.4453 -0.8954
vn 0.0000 -0.9239 -0.3827
vn 0.9285 -0.3431 -0.1421
vn 0.0000 -0.4453 -0.8954
vn -0.9285 -0.3431 -0.1421
vn 0.0000 -0.9480 0.3183
vn 0.0000 -0.3827 0.9239
vn 0.9285 -0.1421 0.3431
vn 0.0000 -0.8954 0.4453
vn -0.9285 -0.1421 0.3431
vn 0.0000 0.3183 0.9480
vn 0.0000 -1.0000 0.0000
vn 0.0000 1.0000 0.0000
vn 0.6393 -0.7104 0.2943
vn 0.6393 0.7104 0.2943
vn 0.6393 0.2943 0.7104
vn 0.6393 0.7104 -0.2943
vn 0.6393 -0.7104 -0.2943
vn 0.6393 0.2943 -0.7104
vn 0.6393 -0.2943 -0.7104
vn 0.6393 -0.2943 0.7104
vn -0.6393 0.7104 0.2943
vn -0.6393 -0.2943 0.7104
vn -0.6393 -0.7104 0.2943
vn -0.6393 -0.2943 -0.7104
vn -0.6393 0.2943 -0.7104
vn -0.6393 0.2943 0.7104
vn -0.6393 -0.7104 -0.2943
vn -0.6393 0.7104 -0.2943
vn 0.4848 -0.8080 -0.3347
vn 0.4848 0.8080 -0.3347
vn 0.4848 -0.3347 -0.8080
vn 0.4848 0.3347 -0.8080
vn 0.5145 0.8575 0.0000
vn 0.5145 -0.8575 0.0000
vn -0.0000 -0.7071 -0.7071
vn -0.0000 0.0000 -1.0000
vn 0.0000 0.0000 1.0000
vn -0.9806 0.0000 0.1961
vn 0.9806 0.0000 0.1961
vn 0.0000 -0.9285 0.3714
vn 0.0000 0.9285 0.3714
usemtl mat_melee1
s off
f 7/1/1 5/2/1 8/3/1 4/4/1
f 1/5/2 9/6/2 6/7/2 3/8/2
f 2/9/3 3/8/3 6/7/3 11/10/3
f 65/11/2 66/12/2 67/13/2 68/14/2 61/15/2 62/16/2 63/17/2 64/18/2
f 11/19/4 6/20/4 4/4/4 12/21/4
f 8/3/5 10/22/5 12/23/5 4/4/5
f 14/24/2 15/25/2 16/26/2 17/27/2 18/28/2 19/29/2 20/30/2 13/31/2
f 22/32/1 21/33/1 28/34/1 27/35/1 26/36/1 25/37/1 24/38/1 23/39/1
f 29/40/6 32/41/6 31/42/6 30/43/6
f 16/44/7 15/45/7 29/40/7 30/43/7
f 24/46/8 16/44/8 30/43/8 31/47/8
f 23/48/9 24/49/9 31/42/9 32/41/9
f 15/50/10 23/48/10 32/41/10 29/51/10
f 33/52/11 36/53/11 35/54/11 34/55/11
f 14/56/12 13/57/12 33/52/12 34/55/12
f 22/58/13 14/56/13 34/55/13 35/59/13
f 21/60/14 22/61/14 35/54/14 36/53/14
f 13/62/15 21/60/15 36/53/15 33/63/15
f 37/64/16 40/65/16 39/66/16 38/67/16
f 13/68/17 20/69/17 37/64/17 38/67/17
f 21/70/18 13/68/18 38/67/18 39/71/18
f 28/72/19 21/73/19 39/66/19 40/65/19
f 20/74/20 28/72/20 40/65/20 37/75/20
f 41/76/21 44/77/21 43/78/21 42/79/21
f 19/80/22 18/81/22 41/76/22 42/79/22
f 27/82/23 19/80/23 42/79/23 43/83/23
f 26/84/24 27/85/24 43/78/24 44/77/24
f 18/86/25 26/84/25 44/77/25 41/87/25
f 45/88/26 48/89/26 47/90/26 46/91/26
f 17/92/27 16/93/27 45/88/27 46/91/27
f 25/94/28 17/92/28 46/91/28 47/95/28
f 24/96/29 25/97/29 47/90/29 48/89/29
f 16/98/30 24/96/30 48/89/30 45/99/30
f 49/100/31 52/101/31 51/102/31 50/103/31
f 15/104/32 14/105/32 49/100/32 50/103/32
f 23/106/33 15/104/33 50/103/33 51/107/33
f 22/108/34 23/109/34 51/102/34 52/101/34
f 14/110/35 22/108/35 52/101/35 49/111/35
f 53/112/36 56/113/36 55/114/36 54/115/36
f 20/116/37 19/117/37 53/112/37 54/115/37
f 28/118/38 20/116/38 54/115/38 55/119/38
f 27/120/39 28/121/39 55/114/39 56/113/39
f 19/122/40 27/120/40 56/113/40 53/123/40
f 57/124/41 60/125/41 59/126/41 58/127/41
f 18/128/42 17/129/42 57/124/42 58/127/42
f 26/130/43 18/128/43 58/127/43 59/131/43
f 25/132/44 26/133/44 59/126/44 60/125/44
f 17/134/45 25/132/45 60/125/45 57/135/45
f 2/9/46 11/10/46 12/136/46 10/137/46
f 1/5/47 5/138/47 7/139/47 9/6/47
f 69/140/21 77/141/21 78/142/21 70/143/21
f 61/144/48 69/140/48 70/143/48 62/145/48
f 66/146/49 74/147/49 75/148/49 67/149/49
f 67/150/50 75/151/50 76/152/50 68/153/50
f 65/154/51 73/155/51 74/156/51 66/157/51
f 62/158/52 70/159/52 71/160/52 63/161/52
f 64/162/53 72/163/53 73/164/53 65/165/53
f 63/166/54 71/167/54 72/168/54 64/169/54
f 68/170/55 76/171/55 69/172/55 61/173/55
f 82/174/56 90/175/56 91/176/56 83/177/56
f 71/167/16 79/178/16 80/179/16 72/168/16
f 72/163/11 80/180/11 81/181/11 73/164/11
f 75/151/26 83/182/26 84/183/26 76/152/26
f 70/159/36 78/184/36 79/185/36 71/160/36
f 73/155/31 81/186/31 82/187/31 74/156/31
f 74/147/6 82/174/6 83/177/6 75/148/6
f 76/171/41 84/188/41 77/189/41 69/172/41
f 89/190/1 88/191/1 87/192/1 86/193/1 85/194/1 92/195/1 91/196/1 90/197/1
f 84/188/57 92/198/57 85/199/57 77/189/57
f 77/141/58 85/200/58 86/201/58 78/142/58
f 79/178/59 87/202/59 88/203/59 80/179/59
f 80/180/60 88/204/60 89/205/60 81/181/60
f 83/182/61 91/206/61 92/207/61 84/183/61
f 78/184/62 86/208/62 87/209/62 79/185/62
f 81/186/63 89/210/63 90/211/63 82/187/63
f 93/212/11 94/213/11 99/214/11 100/215/11
f 94/213/31 132/216/31 109/217/31 99/214/31
f 96/218/16 93/212/16 100/215/16 97/219/16
f 95/220/36 96/218/36 97/219/36 98/221/36
f 98/221/64 97/219/64 101/222/64 102/223/64
f 99/214/65 109/217/65 103/224/65 104/225/65
f 97/219/66 100/215/66 105/226/66 101/227/66
f 100/215/67 99/214/67 104/228/67 105/229/67
f 106/230/68 108/231/68 103/232/68 109/217/68
f 98/221/69 102/233/69 107/234/69 110/235/69
f 101/236/2 105/237/2 104/238/2 103/239/2 108/240/2 107/241/2 102/242/2
f 3/8/70 2/243/70 10/244/70 8/245/70
f 3/8/71 8/245/71 5/246/71 1/5/71
f 4/4/72 6/20/72 9/247/72 7/1/72
f 111/248/73 112/249/73 114/250/73 119/251/73 121/252/73 113/253/73
f 122/254/2 117/255/2 125/256/2 128/257/2
f 117/258/74 122/259/74 120/260/74 118/261/74 116/262/74 115/263/74
f 115/263/72 116/262/72 112/249/72 111/248/72
f 113/264/75 117/255/75 115/263/75 111/248/75
f 118/265/76 114/266/76 112/249/76 116/262/76
f 121/267/71 119/268/71 120/269/71 122/270/71
f 121/267/47 122/270/47 128/271/47 123/272/47
f 117/255/46 113/264/46 124/273/46 125/256/46
f 118/265/2 120/274/2 130/275/2 127/276/2
f 114/266/47 118/265/47 127/276/47 126/277/47
f 120/269/46 119/268/46 129/278/46 130/279/46
f 113/264/1 121/280/1 123/281/1 124/273/1
f 119/282/1 114/266/1 126/277/1 129/283/1
f 106/230/47 109/217/47 132/216/47 131/284/47
f 98/221/46 110/235/46 133/285/46 95/220/46
