# Blender v2.92.0 OBJ File: 'mech_pod.blend'
# www.blender.org
mtllib pod1.mtl
o pod02_Cube.001
v -0.500000 0.000000 0.300000
v -0.500000 0.500000 0.300000
v -0.500000 0.000000 -0.300000
v -0.500000 0.500000 -0.300000
v 0.500000 0.000000 0.300000
v 0.500000 0.500000 0.300000
v 0.500000 0.000000 -0.300000
v 0.500000 0.500000 -0.300000
v 0.250000 0.027060 0.800000
v 0.250000 0.000000 1.000000
v 0.426777 0.073223 1.000000
v 0.500000 0.250000 1.000000
v 0.426777 0.426777 1.000000
v 0.250000 0.500000 1.000000
v 0.073223 0.426777 1.000000
v 0.000000 0.250000 1.000000
v 0.073223 0.073223 1.000000
v 0.407643 0.092357 0.800000
v 0.472940 0.250000 0.800000
v 0.407643 0.407643 0.800000
v 0.250000 0.472940 0.800000
v 0.092357 0.407642 0.800000
v 0.027060 0.250000 0.800000
v 0.092357 0.092357 0.800000
v 0.250000 0.000000 0.800000
v 0.073223 0.073223 0.800000
v -0.000000 0.250000 0.800000
v 0.073223 0.426777 0.800000
v 0.250000 0.500000 0.800000
v 0.426777 0.426777 0.800000
v 0.500000 0.250000 0.800000
v 0.426777 0.073223 0.800000
v 0.250000 0.027060 0.300000
v 0.407642 0.092357 0.300000
v 0.472940 0.250000 0.300000
v 0.407642 0.407643 0.300000
v 0.250000 0.472940 0.300000
v 0.092357 0.407642 0.300000
v 0.027060 0.250000 0.300000
v 0.092357 0.092357 0.300000
v 0.250000 0.027060 -0.300000
v 0.407642 0.092357 -0.300000
v 0.472940 0.250000 -0.300000
v 0.407642 0.407643 -0.300000
v 0.250000 0.472940 -0.300000
v 0.092357 0.407642 -0.300000
v 0.027060 0.250000 -0.300000
v 0.092357 0.092357 -0.300000
v 0.250000 0.027060 -0.500000
v 0.407642 0.092357 -0.500000
v 0.472940 0.250000 -0.500000
v 0.407642 0.407642 -0.500000
v 0.250000 0.472940 -0.500000
v 0.092357 0.407642 -0.500000
v 0.027060 0.250000 -0.500000
v 0.092357 0.092357 -0.500000
v 0.250000 0.027060 -0.800000
v 0.407642 0.092357 -0.800000
v 0.472940 0.250000 -0.800000
v 0.407642 0.407642 -0.800000
v 0.250000 0.472940 -0.800000
v 0.092357 0.407642 -0.800000
v 0.027060 0.250000 -0.800000
v 0.092357 0.092357 -0.800000
v 0.250000 0.027060 -1.000000
v 0.407642 0.092357 -1.000000
v 0.472940 0.250000 -1.000000
v 0.407642 0.407642 -1.000000
v 0.250000 0.472940 -1.000000
v 0.092357 0.407642 -1.000000
v 0.027060 0.250000 -1.000000
v 0.092357 0.092357 -1.000000
v 0.250000 0.002060 -0.500000
v 0.074680 0.074680 -0.500000
v 0.002060 0.250000 -0.500000
v 0.074680 0.425320 -0.500000
v 0.250000 0.497940 -0.500000
v 0.425320 0.425320 -0.500000
v 0.497940 0.250000 -0.500000
v 0.425320 0.074680 -0.500000
v 0.250000 0.002060 -0.800000
v 0.074680 0.074680 -0.800000
v 0.002060 0.250000 -0.800000
v 0.074680 0.425320 -0.800000
v 0.250000 0.497940 -0.800000
v 0.425320 0.425320 -0.800000
v 0.497940 0.250000 -0.800000
v 0.425320 0.074680 -0.800000
v -0.250000 0.027060 -0.300000
v -0.092358 0.092357 -0.300000
v -0.027060 0.250000 -0.300000
v -0.092358 0.407643 -0.300000
v -0.250000 0.472940 -0.300000
v -0.407643 0.407642 -0.300000
v -0.472940 0.250000 -0.300000
v -0.407643 0.092357 -0.300000
v -0.250000 0.027060 -0.500000
v -0.092358 0.092357 -0.500000
v -0.027060 0.250000 -0.500000
v -0.092358 0.407642 -0.500000
v -0.250000 0.472940 -0.500000
v -0.407643 0.407642 -0.500000
v -0.472940 0.250000 -0.500000
v -0.407643 0.092357 -0.500000
v -0.250000 0.027060 -0.800000
v -0.092358 0.092357 -0.800000
v -0.027060 0.250000 -0.800000
v -0.092358 0.407642 -0.800000
v -0.250000 0.472940 -0.800000
v -0.407643 0.407642 -0.800000
v -0.472940 0.250000 -0.800000
v -0.407643 0.092357 -0.800000
v -0.250000 0.027060 -1.000000
v -0.092358 0.092357 -1.000000
v -0.027060 0.250000 -1.000000
v -0.092358 0.407642 -1.000000
v -0.250000 0.472940 -1.000000
v -0.407643 0.407642 -1.000000
v -0.472940 0.250000 -1.000000
v -0.407643 0.092357 -1.000000
v -0.250000 0.002060 -0.500000
v -0.425320 0.074680 -0.500000
v -0.497940 0.250000 -0.500000
v -0.425320 0.425320 -0.500000
v -0.250000 0.497940 -0.500000
v -0.074680 0.425320 -0.500000
v -0.002060 0.250000 -0.500000
v -0.074680 0.074680 -0.500000
v -0.250000 0.002060 -0.800000
v -0.425320 0.074680 -0.800000
v -0.497940 0.250000 -0.800000
v -0.425320 0.425320 -0.800000
v -0.250000 0.497940 -0.800000
v -0.074680 0.425320 -0.800000
v -0.002060 0.250000 -0.800000
v -0.074680 0.074680 -0.800000
v -0.250000 0.027060 0.800000
v -0.250000 0.000000 1.000000
v -0.073223 0.073223 1.000000
v 0.000000 0.250000 1.000000
v -0.073223 0.426777 1.000000
v -0.250000 0.500000 1.000000
v -0.426777 0.426777 1.000000
v -0.500000 0.250000 1.000000
v -0.426777 0.073223 1.000000
v -0.092357 0.092357 0.800000
v -0.027060 0.250000 0.800000
v -0.092357 0.407643 0.800000
v -0.250000 0.472940 0.800000
v -0.407643 0.407642 0.800000
v -0.472940 0.250000 0.800000
v -0.407643 0.092357 0.800000
v -0.250000 0.000000 0.800000
v -0.426777 0.073223 0.800000
v -0.500000 0.250000 0.800000
v -0.426777 0.426777 0.800000
v -0.250000 0.500000 0.800000
v -0.073223 0.426777 0.800000
v -0.000000 0.250000 0.800000
v -0.073223 0.073223 0.800000
v -0.250000 0.027060 0.300000
v -0.092358 0.092357 0.300000
v -0.027060 0.250000 0.300000
v -0.092358 0.407643 0.300000
v -0.250000 0.472940 0.300000
v -0.407643 0.407642 0.300000
v -0.472940 0.250000 0.300000
v -0.407643 0.092357 0.300000
vt 0.199219 0.000000
vt 0.199219 0.167969
vt 0.000000 0.167969
vt 0.000000 0.000000
vt 0.578125 0.148438
vt 0.578125 0.316406
vt 0.242188 0.316406
vt 0.242188 0.148438
vt 0.000000 0.667969
vt 0.000000 0.500000
vt 0.199219 0.500000
vt 0.199219 0.667969
vt 0.578125 0.148438
vt 0.578125 0.316406
vt 0.242188 0.316406
vt 0.242188 0.148438
vt 0.000000 1.000000
vt 0.199219 1.000000
vt 0.625000 0.632812
vt 0.562500 0.632812
vt 0.562500 0.574219
vt 0.625000 0.574219
vt 0.625000 0.691406
vt 0.562500 0.691406
vt 0.625000 0.929688
vt 0.562500 0.929688
vt 0.562500 0.871094
vt 0.625000 0.871094
vt 0.562500 0.812500
vt 0.625000 0.812500
vt 0.562500 0.753906
vt 0.625000 0.753906
vt 0.238281 0.562500
vt 0.394531 0.562500
vt 0.394531 0.617188
vt 0.238281 0.617188
vt 0.562500 0.511719
vt 0.625000 0.511719
vt 0.558594 0.453125
vt 0.515625 0.496094
vt 0.457031 0.496094
vt 0.414062 0.453125
vt 0.414062 0.394531
vt 0.457031 0.351562
vt 0.515625 0.351562
vt 0.558594 0.394531
vt 0.625000 0.992188
vt 0.562500 0.992188
vt 0.238281 0.671875
vt 0.394531 0.671875
vt 0.394531 0.722656
vt 0.238281 0.722656
vt 0.238281 0.777344
vt 0.394531 0.777344
vt 0.394531 0.832031
vt 0.238281 0.832031
vt 0.238281 0.882812
vt 0.394531 0.882812
vt 0.394531 0.937500
vt 0.238281 0.937500
vt 0.394531 0.992188
vt 0.238281 0.992188
vt 0.625000 0.632812
vt 0.562500 0.632812
vt 0.562500 0.574219
vt 0.625000 0.574219
vt 0.847656 0.921875
vt 0.785156 0.921875
vt 0.785156 0.867188
vt 0.847656 0.867188
vt 0.847656 0.812500
vt 0.785156 0.812500
vt 0.785156 0.761719
vt 0.847656 0.761719
vt 0.847656 0.707031
vt 0.785156 0.707031
vt 0.785156 0.652344
vt 0.847656 0.652344
vt 0.847656 0.601562
vt 0.785156 0.601562
vt 0.785156 0.546875
vt 0.847656 0.546875
vt 0.847656 0.972656
vt 0.785156 0.972656
vt 0.734375 0.917969
vt 0.671875 0.917969
vt 0.671875 0.863281
vt 0.734375 0.863281
vt 0.718750 0.398438
vt 0.718750 0.453125
vt 0.679688 0.488281
vt 0.625000 0.488281
vt 0.589844 0.453125
vt 0.589844 0.398438
vt 0.625000 0.359375
vt 0.679688 0.359375
vt 0.734375 0.812500
vt 0.671875 0.812500
vt 0.671875 0.757812
vt 0.734375 0.757812
vt 0.734375 0.703125
vt 0.671875 0.703125
vt 0.671875 0.652344
vt 0.734375 0.652344
vt 0.734375 0.597656
vt 0.671875 0.597656
vt 0.671875 0.542969
vt 0.734375 0.542969
vt 0.734375 0.972656
vt 0.671875 0.972656
vt 0.523438 0.578125
vt 0.429688 0.578125
vt 0.429688 0.519531
vt 0.523438 0.519531
vt 0.523438 0.992188
vt 0.429688 0.992188
vt 0.429688 0.933594
vt 0.523438 0.933594
vt 0.523438 0.875000
vt 0.429688 0.875000
vt 0.429688 0.816406
vt 0.523438 0.816406
vt 0.523438 0.753906
vt 0.429688 0.753906
vt 0.429688 0.695312
vt 0.523438 0.695312
vt 0.523438 0.636719
vt 0.429688 0.636719
vt 0.847656 0.921875
vt 0.785156 0.921875
vt 0.785156 0.867188
vt 0.847656 0.867188
vt 0.847656 0.812500
vt 0.785156 0.812500
vt 0.785156 0.761719
vt 0.847656 0.761719
vt 0.847656 0.707031
vt 0.785156 0.707031
vt 0.785156 0.652344
vt 0.847656 0.652344
vt 0.847656 0.601562
vt 0.785156 0.601562
vt 0.785156 0.546875
vt 0.847656 0.546875
vt 0.847656 0.972656
vt 0.785156 0.972656
vt 0.734375 0.917969
vt 0.671875 0.917969
vt 0.671875 0.863281
vt 0.734375 0.863281
vt 0.679688 0.359375
vt 0.718750 0.398438
vt 0.718750 0.453125
vt 0.679688 0.488281
vt 0.625000 0.488281
vt 0.589844 0.453125
vt 0.589844 0.398438
vt 0.625000 0.359375
vt 0.734375 0.812500
vt 0.671875 0.812500
vt 0.671875 0.757812
vt 0.734375 0.757812
vt 0.734375 0.703125
vt 0.671875 0.703125
vt 0.671875 0.652344
vt 0.734375 0.652344
vt 0.734375 0.597656
vt 0.671875 0.597656
vt 0.671875 0.542969
vt 0.734375 0.542969
vt 0.734375 0.972656
vt 0.671875 0.972656
vt 0.523438 0.578125
vt 0.429688 0.578125
vt 0.429688 0.519531
vt 0.523438 0.519531
vt 0.523438 0.992188
vt 0.429688 0.992188
vt 0.429688 0.933594
vt 0.523438 0.933594
vt 0.523438 0.875000
vt 0.429688 0.875000
vt 0.429688 0.816406
vt 0.523438 0.816406
vt 0.523438 0.753906
vt 0.429688 0.753906
vt 0.429688 0.695312
vt 0.523438 0.695312
vt 0.523438 0.636719
vt 0.429688 0.636719
vt 0.230469 0.453125
vt 0.230469 0.394531
vt 0.269531 0.351562
vt 0.332031 0.351562
vt 0.371094 0.394531
vt 0.371094 0.453125
vt 0.332031 0.496094
vt 0.269531 0.496094
vt 0.371094 0.453125
vt 0.332031 0.496094
vt 0.269531 0.496094
vt 0.230469 0.453125
vt 0.230469 0.394531
vt 0.269531 0.351562
vt 0.332031 0.351562
vt 0.371094 0.394531
vt 0.625000 0.691406
vt 0.562500 0.691406
vt 0.625000 0.929688
vt 0.562500 0.929688
vt 0.562500 0.871094
vt 0.625000 0.871094
vt 0.562500 0.812500
vt 0.625000 0.812500
vt 0.562500 0.753906
vt 0.625000 0.753906
vt 0.238281 0.562500
vt 0.394531 0.562500
vt 0.394531 0.617188
vt 0.238281 0.617188
vt 0.562500 0.511719
vt 0.625000 0.511719
vt 0.558594 0.394531
vt 0.558594 0.453125
vt 0.515625 0.496094
vt 0.457031 0.496094
vt 0.414062 0.453125
vt 0.414062 0.394531
vt 0.457031 0.351562
vt 0.515625 0.351562
vt 0.625000 0.992188
vt 0.562500 0.992188
vt 0.230469 0.394531
vt 0.269531 0.351562
vt 0.332031 0.351562
vt 0.371094 0.394531
vt 0.371094 0.453125
vt 0.332031 0.496094
vt 0.269531 0.496094
vt 0.230469 0.453125
vt 0.332031 0.496094
vt 0.269531 0.496094
vt 0.230469 0.453125
vt 0.230469 0.394531
vt 0.269531 0.351562
vt 0.332031 0.351562
vt 0.371094 0.394531
vt 0.371094 0.453125
vt 0.332031 0.351562
vt 0.371094 0.394531
vt 0.371094 0.453125
vt 0.332031 0.496094
vt 0.269531 0.496094
vt 0.230469 0.453125
vt 0.230469 0.394531
vt 0.269531 0.351562
vt 0.230469 0.453125
vt 0.230469 0.394531
vt 0.269531 0.351562
vt 0.332031 0.351562
vt 0.371094 0.394531
vt 0.371094 0.453125
vt 0.332031 0.496094
vt 0.269531 0.496094
vt 0.238281 0.671875
vt 0.394531 0.671875
vt 0.394531 0.722656
vt 0.238281 0.722656
vt 0.238281 0.777344
vt 0.394531 0.777344
vt 0.394531 0.832031
vt 0.238281 0.832031
vt 0.238281 0.882812
vt 0.394531 0.882812
vt 0.394531 0.937500
vt 0.238281 0.937500
vt 0.394531 0.992188
vt 0.238281 0.992188
vn -1.0000 0.0000 0.0000
vn 0.0000 0.0000 -1.0000
vn 1.0000 0.0000 0.0000
vn 0.0000 0.0000 1.0000
vn 0.0000 -1.0000 0.0000
vn 0.0000 1.0000 0.0000
vn -0.9239 -0.3827 0.0000
vn -0.9239 0.3827 0.0000
vn 0.9239 -0.3827 -0.0000
vn 0.9239 0.3827 -0.0000
vn 0.3827 0.9239 0.0000
vn -0.3827 0.9239 0.0000
vn 0.3827 -0.9239 0.0000
vn -0.3827 -0.9239 0.0000
usemtl mat_pod2
s off
f 1/1/1 2/2/1 4/3/1 3/4/1
f 3/5/2 4/6/2 8/7/2 7/8/2
f 7/9/3 8/10/3 6/11/3 5/12/3
f 5/13/4 6/14/4 2/15/4 1/16/4
f 3/17/5 7/9/5 5/12/5 1/18/5
f 8/10/6 4/3/6 2/2/6 6/11/6
f 16/19/7 27/20/7 26/21/7 17/22/7
f 15/23/8 28/24/8 27/20/8 16/19/8
f 11/25/9 32/26/9 31/27/9 12/28/9
f 12/28/10 31/27/10 30/29/10 13/30/10
f 13/30/11 30/29/11 29/31/11 14/32/11
f 14/32/12 29/31/12 28/24/12 15/23/12
f 9/33/13 33/34/13 34/35/13 18/36/13
f 17/22/14 26/21/14 25/37/14 10/38/14
f 10/39/4 11/40/4 12/41/4 13/42/4 14/43/4 15/44/4 16/45/4 17/46/4
f 10/47/13 25/48/13 32/26/13 11/25/13
f 19/49/10 35/50/10 36/51/10 20/52/10
f 21/53/12 37/54/12 38/55/12 22/56/12
f 23/57/7 39/58/7 40/59/7 24/60/7
f 18/36/9 34/35/9 35/50/9 19/49/9
f 20/52/11 36/51/11 37/54/11 21/53/11
f 22/56/8 38/55/8 39/58/8 23/57/8
f 24/60/14 40/59/14 33/61/14 9/62/14
f 144/63/7 155/64/7 154/65/7 145/66/7
f 42/67/9 50/68/9 51/69/9 43/70/9
f 44/71/11 52/72/11 53/73/11 45/74/11
f 46/75/8 54/76/8 55/77/8 47/78/8
f 48/79/14 56/80/14 49/81/14 41/82/14
f 41/83/13 49/84/13 50/68/13 42/67/13
f 43/70/10 51/69/10 52/72/10 44/71/10
f 45/74/12 53/73/12 54/76/12 46/75/12
f 47/78/7 55/77/7 56/80/7 48/79/7
f 58/85/9 66/86/9 67/87/9 59/88/9
f 65/89/2 72/90/2 71/91/2 70/92/2 69/93/2 68/94/2 67/95/2 66/96/2
f 60/97/11 68/98/11 69/99/11 61/100/11
f 62/101/8 70/102/8 71/103/8 63/104/8
f 64/105/14 72/106/14 65/107/14 57/108/14
f 57/109/13 65/110/13 66/86/13 58/85/13
f 59/88/10 67/87/10 68/98/10 60/97/10
f 61/100/12 69/99/12 70/102/12 62/101/12
f 63/104/7 71/103/7 72/106/7 64/105/7
f 74/111/14 82/112/14 81/113/14 73/114/14
f 73/115/13 81/116/13 88/117/13 80/118/13
f 79/119/10 87/120/10 86/121/10 78/122/10
f 77/123/12 85/124/12 84/125/12 76/126/12
f 75/127/7 83/128/7 82/112/7 74/111/7
f 80/118/9 88/117/9 87/120/9 79/119/9
f 78/122/11 86/121/11 85/124/11 77/123/11
f 76/126/8 84/125/8 83/128/8 75/127/8
f 90/129/9 98/130/9 99/131/9 91/132/9
f 92/133/11 100/134/11 101/135/11 93/136/11
f 94/137/8 102/138/8 103/139/8 95/140/8
f 96/141/14 104/142/14 97/143/14 89/144/14
f 89/145/13 97/146/13 98/130/13 90/129/13
f 91/132/10 99/131/10 100/134/10 92/133/10
f 93/136/12 101/135/12 102/138/12 94/137/12
f 95/140/7 103/139/7 104/142/7 96/141/7
f 106/147/9 114/148/9 115/149/9 107/150/9
f 113/151/2 120/152/2 119/153/2 118/154/2 117/155/2 116/156/2 115/157/2 114/158/2
f 108/159/11 116/160/11 117/161/11 109/162/11
f 110/163/8 118/164/8 119/165/8 111/166/8
f 112/167/14 120/168/14 113/169/14 105/170/14
f 105/171/13 113/172/13 114/148/13 106/147/13
f 107/150/10 115/149/10 116/160/10 108/159/10
f 109/162/12 117/161/12 118/164/12 110/163/12
f 111/166/7 119/165/7 120/168/7 112/167/7
f 122/173/14 130/174/14 129/175/14 121/176/14
f 121/177/13 129/178/13 136/179/13 128/180/13
f 127/181/10 135/182/10 134/183/10 126/184/10
f 125/185/12 133/186/12 132/187/12 124/188/12
f 123/189/7 131/190/7 130/174/7 122/173/7
f 128/180/9 136/179/9 135/182/9 127/181/9
f 126/184/11 134/183/11 133/186/11 125/185/11
f 124/188/8 132/187/8 131/190/8 123/189/8
f 121/191/4 128/192/4 127/193/4 126/194/4 125/195/4 124/196/4 123/197/4 122/198/4
f 73/199/4 80/200/4 79/201/4 78/202/4 77/203/4 76/204/4 75/205/4 74/206/4
f 143/207/8 156/208/8 155/64/8 144/63/8
f 139/209/9 160/210/9 159/211/9 140/212/9
f 140/212/10 159/211/10 158/213/10 141/214/10
f 141/214/11 158/213/11 157/215/11 142/216/11
f 142/216/12 157/215/12 156/208/12 143/207/12
f 137/217/13 161/218/13 162/219/13 146/220/13
f 145/66/14 154/65/14 153/221/14 138/222/14
f 138/223/4 139/224/4 140/225/4 141/226/4 142/227/4 143/228/4 144/229/4 145/230/4
f 138/231/13 153/232/13 160/210/13 139/209/13
f 153/233/2 154/234/2 155/235/2 156/236/2 157/237/2 158/238/2 159/239/2 160/240/2
f 129/241/2 130/242/2 131/243/2 132/244/2 133/245/2 134/246/2 135/247/2 136/248/2
f 81/249/2 82/250/2 83/251/2 84/252/2 85/253/2 86/254/2 87/255/2 88/256/2
f 25/257/2 26/258/2 27/259/2 28/260/2 29/261/2 30/262/2 31/263/2 32/264/2
f 147/265/10 163/266/10 164/267/10 148/268/10
f 149/269/12 165/270/12 166/271/12 150/272/12
f 151/273/7 167/274/7 168/275/7 152/276/7
f 146/220/9 162/219/9 163/266/9 147/265/9
f 148/268/11 164/267/11 165/270/11 149/269/11
f 150/272/8 166/271/8 167/274/8 151/273/8
f 152/276/14 168/275/14 161/277/14 137/278/14
