# Blender v2.92.0 OBJ File: 'mech_pod.blend'
# www.blender.org
mtllib pod03.mtl
o pod03_Cube.002
v -0.120000 -0.000000 0.210000
v -0.120000 0.240000 0.210000
v -0.120000 -0.000000 -0.180000
v -0.120000 0.240000 -0.180000
v 0.120000 -0.000000 0.210000
v 0.120000 0.240000 0.210000
v 0.120000 -0.000000 -0.180000
v 0.120000 0.240000 -0.180000
v -0.096000 0.216000 -0.240000
v -0.096000 0.024000 -0.240000
v 0.096000 0.024000 -0.240000
v 0.096000 0.216000 -0.240000
v -0.096000 0.024000 0.240000
v -0.096000 0.216000 0.240000
v 0.096000 0.216000 0.240000
v 0.096000 0.024000 0.240000
v -0.096000 0.024000 0.150000
v -0.096000 0.216000 0.150000
v 0.096000 0.216000 0.150000
v 0.096000 0.024000 0.150000
v -0.017453 0.137453 0.210000
v -0.004800 0.168000 0.210000
v -0.048000 0.046080 0.240000
v -0.029672 0.053672 0.240000
v -0.017453 0.198547 0.210000
v -0.022080 0.072000 0.240000
v -0.029672 0.090328 0.240000
v -0.048000 0.097920 0.240000
v -0.066328 0.090328 0.240000
v -0.048000 0.211200 0.210000
v -0.078547 0.198547 0.210000
v -0.091200 0.168000 0.210000
v -0.078547 0.137453 0.210000
v -0.048000 0.124800 0.210000
v -0.066328 0.149672 0.240000
v -0.073920 0.168000 0.240000
v -0.073920 0.072000 0.240000
v -0.066328 0.053672 0.240000
v -0.048000 0.028800 0.210000
v -0.078547 0.041453 0.210000
v -0.091200 0.072000 0.210000
v -0.066328 0.186328 0.240000
v -0.078547 0.102547 0.210000
v -0.048000 0.115200 0.210000
v -0.017453 0.102547 0.210000
v -0.004800 0.072000 0.210000
v -0.017453 0.041453 0.210000
v -0.048000 0.193920 0.240000
v -0.029672 0.186328 0.240000
v -0.022080 0.168000 0.240000
v -0.029672 0.149672 0.240000
v -0.048000 0.142080 0.240000
v 0.048000 0.142080 0.240000
v 0.066328 0.149672 0.240000
v 0.073920 0.168000 0.240000
v 0.066328 0.186328 0.240000
v 0.048000 0.193920 0.240000
v 0.029672 0.186328 0.240000
v 0.022080 0.168000 0.240000
v 0.029672 0.149672 0.240000
v 0.048000 0.124800 0.210000
v 0.017453 0.137453 0.210000
v 0.004800 0.168000 0.210000
v 0.017453 0.198547 0.210000
v 0.048000 0.211200 0.210000
v 0.078547 0.198547 0.210000
v 0.091200 0.168000 0.210000
v 0.078547 0.137453 0.210000
v 0.048000 0.124800 0.150000
v 0.017453 0.137453 0.150000
v 0.004800 0.168000 0.150000
v 0.017453 0.198547 0.150000
v 0.048000 0.211200 0.150000
v 0.078547 0.198547 0.150000
v 0.091200 0.168000 0.150000
v 0.078547 0.137453 0.150000
v -0.048000 0.124800 0.150000
v -0.078547 0.137453 0.150000
v -0.091200 0.168000 0.150000
v -0.078547 0.198547 0.150000
v -0.048000 0.211200 0.150000
v -0.017453 0.198547 0.150000
v -0.004800 0.168000 0.150000
v -0.017453 0.137453 0.150000
v 0.048000 0.046080 0.240000
v 0.066328 0.053672 0.240000
v 0.073920 0.072000 0.240000
v 0.066328 0.090328 0.240000
v 0.048000 0.097920 0.240000
v 0.029672 0.090328 0.240000
v 0.022080 0.072000 0.240000
v 0.029672 0.053672 0.240000
v 0.048000 0.028800 0.210000
v 0.017453 0.041453 0.210000
v 0.004800 0.072000 0.210000
v 0.017453 0.102547 0.210000
v 0.048000 0.115200 0.210000
v 0.078547 0.102547 0.210000
v 0.091200 0.072000 0.210000
v 0.078547 0.041453 0.210000
v 0.048000 0.028800 0.150000
v 0.017453 0.041453 0.150000
v 0.004800 0.072000 0.150000
v 0.017453 0.102547 0.150000
v 0.048000 0.115200 0.150000
v 0.078547 0.102547 0.150000
v 0.091200 0.072000 0.150000
v 0.078547 0.041453 0.150000
v -0.048000 0.028800 0.150000
v -0.078547 0.041453 0.150000
v -0.091200 0.072000 0.150000
v -0.078547 0.102547 0.150000
v -0.048000 0.115200 0.150000
v -0.017453 0.102547 0.150000
v -0.004800 0.072000 0.150000
v -0.017453 0.041453 0.150000
vt 0.042969 0.738281
vt 0.042969 0.492188
vt 0.460938 0.492188
vt 0.460938 0.738281
vt 0.460938 0.253906
vt 0.460938 0.011719
vt 0.511719 0.035156
vt 0.511719 0.226562
vt 0.042969 0.253906
vt 0.042969 0.011719
vt 0.042969 0.980469
vt 0.011719 0.957031
vt 0.011719 0.761719
vt 0.460938 0.980469
vt 0.535156 0.625000
vt 0.535156 0.429688
vt 0.730469 0.429688
vt 0.730469 0.625000
vt 0.511719 0.761719
vt 0.511719 0.957031
vt 0.511719 0.277344
vt 0.511719 0.468750
vt 0.511719 0.519531
vt 0.511719 0.714844
vt 0.644531 0.011719
vt 0.820312 0.011719
vt 0.820312 0.121094
vt 0.644531 0.121094
vt 0.011719 0.468750
vt 0.011719 0.277344
vt 0.011719 0.226562
vt 0.011719 0.035156
vt 0.011719 0.714844
vt 0.011719 0.519531
vt 0.820312 0.296875
vt 0.644531 0.296875
vt 0.535156 0.296875
vt 0.535156 0.121094
vt 0.820312 0.410156
vt 0.644531 0.410156
vt 0.929688 0.121094
vt 0.929688 0.296875
vt 0.628906 0.652344
vt 0.593750 0.648438
vt 0.593750 0.679688
vt 0.628906 0.675781
vt 0.699219 0.660156
vt 0.683594 0.648438
vt 0.664062 0.648438
vt 0.648438 0.660156
vt 0.648438 0.679688
vt 0.664062 0.695312
vt 0.683594 0.695312
vt 0.699219 0.679688
vt 0.628906 0.652344
vt 0.593750 0.648438
vt 0.593750 0.679688
vt 0.628906 0.675781
vt 0.664062 0.695312
vt 0.683594 0.695312
vt 0.699219 0.679688
vt 0.699219 0.660156
vt 0.683594 0.648438
vt 0.664062 0.648438
vt 0.648438 0.660156
vt 0.648438 0.679688
vt 0.628906 0.820312
vt 0.593750 0.816406
vt 0.593750 0.847656
vt 0.628906 0.843750
vt 0.628906 0.722656
vt 0.593750 0.714844
vt 0.593750 0.746094
vt 0.628906 0.742188
vt 0.628906 0.820312
vt 0.593750 0.816406
vt 0.593750 0.847656
vt 0.628906 0.843750
vt 0.628906 0.753906
vt 0.593750 0.746094
vt 0.593750 0.781250
vt 0.628906 0.773438
vt 0.535156 0.714844
vt 0.535156 0.746094
vt 0.628906 0.855469
vt 0.593750 0.882812
vt 0.628906 0.875000
vt 0.628906 0.789062
vt 0.628906 0.808594
vt 0.628906 0.855469
vt 0.593750 0.882812
vt 0.628906 0.875000
vt 0.593750 0.714844
vt 0.535156 0.714844
vt 0.535156 0.746094
vt 0.628906 0.789062
vt 0.593750 0.781250
vt 0.628906 0.808594
vt 0.628906 0.722656
vt 0.628906 0.742188
vt 0.628906 0.687500
vt 0.628906 0.707031
vt 0.628906 0.753906
vt 0.628906 0.773438
vt 0.628906 0.890625
vt 0.593750 0.914062
vt 0.628906 0.910156
vt 0.628906 0.687500
vt 0.628906 0.707031
vt 0.628906 0.890625
vt 0.593750 0.914062
vt 0.628906 0.910156
vt 0.699219 0.660156
vt 0.683594 0.648438
vt 0.664062 0.648438
vt 0.648438 0.660156
vt 0.648438 0.679688
vt 0.664062 0.695312
vt 0.683594 0.695312
vt 0.699219 0.679688
vt 0.593750 0.746094
vt 0.593750 0.714844
vt 0.535156 0.714844
vt 0.535156 0.746094
vt 0.628906 0.820312
vt 0.593750 0.816406
vt 0.593750 0.847656
vt 0.628906 0.843750
vt 0.628906 0.890625
vt 0.593750 0.882812
vt 0.593750 0.914062
vt 0.628906 0.910156
vt 0.628906 0.687500
vt 0.593750 0.679688
vt 0.628906 0.707031
vt 0.628906 0.753906
vt 0.593750 0.781250
vt 0.628906 0.773438
vt 0.628906 0.789062
vt 0.628906 0.808594
vt 0.628906 0.855469
vt 0.628906 0.875000
vt 0.628906 0.652344
vt 0.593750 0.648438
vt 0.628906 0.675781
vt 0.628906 0.722656
vt 0.628906 0.742188
vt 0.535156 0.781250
vt 0.535156 0.816406
vt 0.535156 0.847656
vt 0.535156 0.882812
vt 0.535156 0.914062
vt 0.535156 0.679688
vt 0.535156 0.648438
vt 0.535156 0.781250
vt 0.535156 0.816406
vt 0.535156 0.847656
vt 0.535156 0.882812
vt 0.535156 0.914062
vt 0.535156 0.679688
vt 0.535156 0.648438
vt 0.699219 0.660156
vt 0.683594 0.648438
vt 0.664062 0.648438
vt 0.648438 0.660156
vt 0.648438 0.679688
vt 0.664062 0.695312
vt 0.683594 0.695312
vt 0.699219 0.679688
vt 0.593750 0.746094
vt 0.593750 0.714844
vt 0.535156 0.714844
vt 0.535156 0.746094
vt 0.628906 0.820312
vt 0.593750 0.816406
vt 0.593750 0.847656
vt 0.628906 0.843750
vt 0.628906 0.890625
vt 0.593750 0.882812
vt 0.593750 0.914062
vt 0.628906 0.910156
vt 0.628906 0.687500
vt 0.593750 0.679688
vt 0.628906 0.707031
vt 0.628906 0.753906
vt 0.593750 0.781250
vt 0.628906 0.773438
vt 0.628906 0.789062
vt 0.628906 0.808594
vt 0.628906 0.855469
vt 0.628906 0.875000
vt 0.628906 0.652344
vt 0.593750 0.648438
vt 0.628906 0.675781
vt 0.628906 0.722656
vt 0.628906 0.742188
vt 0.535156 0.781250
vt 0.535156 0.816406
vt 0.535156 0.847656
vt 0.535156 0.882812
vt 0.535156 0.914062
vt 0.535156 0.679688
vt 0.535156 0.648438
vt 0.535156 0.781250
vt 0.535156 0.816406
vt 0.535156 0.847656
vt 0.535156 0.882812
vt 0.535156 0.914062
vt 0.535156 0.679688
vt 0.535156 0.648438
vn -1.0000 0.0000 0.0000
vn 0.9285 0.0000 -0.3714
vn 1.0000 0.0000 0.0000
vn 0.0000 -0.7809 0.6247
vn 0.0000 -1.0000 0.0000
vn 0.0000 1.0000 0.0000
vn 0.0000 0.0000 -1.0000
vn 0.0000 -0.9285 -0.3714
vn 0.0000 0.9285 -0.3714
vn -0.9285 0.0000 -0.3714
vn 0.0000 0.7809 0.6247
vn 0.7809 0.0000 0.6247
vn -0.7809 0.0000 0.6247
vn 0.0000 0.0000 1.0000
vn -0.3378 0.8156 0.4698
vn 0.8156 -0.3378 0.4698
vn -0.8156 -0.3378 0.4698
vn -0.3378 -0.8156 0.4698
vn -0.9239 -0.3827 0.0000
vn 0.8156 0.3378 0.4698
vn 0.3378 -0.8156 0.4698
vn -0.8156 0.3378 0.4698
vn 0.3378 0.8156 0.4698
vn 0.3827 -0.9239 -0.0000
vn 0.9239 -0.3827 -0.0000
vn 0.3827 0.9239 0.0000
vn -0.9239 0.3827 0.0000
vn 0.9239 0.3827 -0.0000
vn -0.3827 0.9239 0.0000
vn -0.3827 -0.9239 0.0000
usemtl mat_pod3
s off
f 1/1/1 2/2/1 4/3/1 3/4/1
f 8/5/2 7/6/2 11/7/2 12/8/2
f 7/6/3 8/5/3 6/9/3 5/10/3
f 1/1/4 5/11/4 16/12/4 13/13/4
f 3/4/5 7/14/5 5/11/5 1/1/5
f 8/5/6 4/3/6 2/2/6 6/9/6
f 10/15/7 9/16/7 12/17/7 11/18/7
f 7/14/8 3/4/8 10/19/8 11/20/8
f 4/3/9 8/5/9 12/21/9 9/22/9
f 3/4/10 4/3/10 9/23/10 10/24/10
f 16/25/1 15/26/1 19/27/1 20/28/1
f 6/9/11 2/2/11 14/29/11 15/30/11
f 5/10/12 6/9/12 15/31/12 16/32/12
f 2/2/13 1/1/13 13/33/13 14/34/13
f 20/28/14 19/27/14 18/35/14 17/36/14
f 13/37/6 16/38/6 20/28/6 17/36/6
f 14/39/3 13/40/3 17/36/3 18/35/3
f 15/41/5 14/42/5 18/35/5 19/27/5
f 48/43/15 30/44/15 31/45/15 42/46/15
f 23/47/14 24/48/14 26/49/14 27/50/14 28/51/14 29/52/14 37/53/14 38/54/14
f 28/55/15 44/56/15 43/57/15 29/58/15
f 52/59/14 51/60/14 50/61/14 49/62/14 48/63/14 42/64/14 36/65/14 35/66/14
f 24/67/16 47/68/16 46/69/16 26/70/16
f 36/71/17 32/72/17 33/73/17 35/74/17
f 51/75/16 21/76/16 22/77/16 50/78/16
f 38/79/18 40/80/18 39/81/18 23/82/18
f 33/73/19 32/72/19 79/83/19 78/84/19
f 26/85/20 46/69/20 45/86/20 27/87/20
f 23/88/21 39/81/21 47/68/21 24/89/21
f 50/90/20 22/77/20 25/91/20 49/92/20
f 40/80/19 41/93/19 111/94/19 110/95/19
f 52/96/21 34/97/21 21/76/21 51/98/21
f 37/99/17 41/93/17 40/80/17 38/100/17
f 29/101/22 43/57/22 41/93/22 37/102/22
f 35/103/18 33/73/18 34/97/18 52/104/18
f 27/105/23 45/86/23 44/106/23 28/107/23
f 42/108/22 31/45/22 32/72/22 36/109/22
f 49/110/23 25/91/23 30/111/23 48/112/23
f 53/113/14 54/114/14 55/115/14 56/116/14 57/117/14 58/118/14 59/119/14 60/120/14
f 62/121/19 63/122/19 71/123/19 70/124/19
f 54/125/16 68/126/16 67/127/16 55/128/16
f 56/129/23 66/130/23 65/131/23 57/132/23
f 58/133/22 64/134/22 63/122/22 59/135/22
f 60/136/18 62/121/18 61/137/18 53/138/18
f 53/139/21 61/137/21 68/126/21 54/140/21
f 55/141/20 67/127/20 66/130/20 56/142/20
f 57/143/15 65/144/15 64/134/15 58/145/15
f 59/146/17 63/122/17 62/121/17 60/147/17
f 68/126/24 61/137/24 69/148/24 76/149/24
f 68/126/25 76/149/25 75/150/25 67/127/25
f 65/131/26 66/130/26 74/151/26 73/152/26
f 63/122/27 64/134/27 72/153/27 71/123/27
f 66/130/28 67/127/28 75/150/28 74/151/28
f 64/134/29 65/144/29 73/154/29 72/153/29
f 21/76/24 34/97/24 77/155/24 84/156/24
f 61/137/30 62/121/30 70/124/30 69/148/30
f 21/76/25 84/156/25 83/157/25 22/77/25
f 30/111/26 25/91/26 82/158/26 81/159/26
f 32/72/27 31/45/27 80/160/27 79/83/27
f 25/91/28 22/77/28 83/157/28 82/158/28
f 31/45/29 30/44/29 81/161/29 80/160/29
f 34/97/30 33/73/30 78/84/30 77/155/30
f 85/162/14 86/163/14 87/164/14 88/165/14 89/166/14 90/167/14 91/168/14 92/169/14
f 94/170/19 95/171/19 103/172/19 102/173/19
f 86/174/16 100/175/16 99/176/16 87/177/16
f 88/178/23 98/179/23 97/180/23 89/181/23
f 90/182/22 96/183/22 95/171/22 91/184/22
f 92/185/18 94/170/18 93/186/18 85/187/18
f 85/188/21 93/186/21 100/175/21 86/189/21
f 87/190/20 99/176/20 98/179/20 88/191/20
f 89/192/15 97/193/15 96/183/15 90/194/15
f 91/195/17 95/171/17 94/170/17 92/196/17
f 100/175/24 93/186/24 101/197/24 108/198/24
f 100/175/25 108/198/25 107/199/25 99/176/25
f 97/180/26 98/179/26 106/200/26 105/201/26
f 95/171/27 96/183/27 104/202/27 103/172/27
f 98/179/28 99/176/28 107/199/28 106/200/28
f 96/183/29 97/193/29 105/203/29 104/202/29
f 47/68/24 39/81/24 109/204/24 116/205/24
f 93/186/30 94/170/30 102/173/30 101/197/30
f 47/68/25 116/205/25 115/206/25 46/69/25
f 44/106/26 45/86/26 114/207/26 113/208/26
f 41/93/27 43/57/27 112/209/27 111/94/27
f 45/86/28 46/69/28 115/206/28 114/207/28
f 43/57/29 44/56/29 113/210/29 112/209/29
f 39/81/30 40/80/30 110/95/30 109/204/30
