# Blender v2.92.0 OBJ File: 'mech_pod.blend'
# www.blender.org
mtllib pod04.mtl
o pod04_Cube.003
v -0.150000 0.000000 0.180000
v -0.150000 0.180000 0.180000
v -0.150000 0.000000 -0.180000
v -0.150000 0.180000 -0.180000
v 0.150000 0.000000 0.180000
v 0.150000 0.180000 0.180000
v 0.150000 0.000000 -0.180000
v 0.150000 0.180000 -0.180000
v -0.120000 0.018000 -0.240000
v -0.120000 0.162000 -0.240000
v 0.120000 0.018000 -0.240000
v 0.120000 0.162000 -0.240000
v -0.120000 0.030000 0.210000
v -0.120000 0.150000 0.210000
v 0.120000 0.030000 0.210000
v 0.120000 0.150000 0.210000
v -0.120000 0.030000 0.120000
v -0.120000 0.150000 0.120000
v 0.120000 0.150000 0.120000
v 0.120000 0.030000 0.120000
v 0.030000 0.043800 0.210000
v -0.030000 0.093000 0.120000
v 0.041455 0.048545 0.210000
v 0.046200 0.060000 0.210000
v 0.041455 0.071455 0.210000
v 0.030000 0.076200 0.210000
v -0.049092 0.100908 0.120000
v -0.057000 0.120000 0.120000
v -0.049092 0.139092 0.120000
v -0.030000 0.147000 0.120000
v 0.018545 0.071455 0.210000
v 0.013800 0.060000 0.210000
v 0.018545 0.048545 0.210000
v 0.030000 0.033000 0.180000
v 0.010908 0.040908 0.180000
v -0.010908 0.139092 0.120000
v -0.003000 0.120000 0.120000
v -0.010908 0.100908 0.120000
v 0.049092 0.100908 0.120000
v 0.057000 0.120000 0.120000
v 0.049092 0.139092 0.120000
v 0.030000 0.147000 0.120000
v 0.010908 0.139092 0.120000
v 0.003000 0.120000 0.120000
v 0.010908 0.100908 0.120000
v 0.030000 0.093000 0.120000
v 0.049092 0.100908 0.180000
v 0.057000 0.120000 0.180000
v 0.003000 0.060000 0.180000
v 0.010908 0.079092 0.180000
v 0.030000 0.087000 0.180000
v 0.049092 0.079092 0.180000
v 0.057000 0.060000 0.180000
v 0.049092 0.040908 0.180000
v 0.030000 0.033000 0.120000
v 0.010908 0.040908 0.120000
v 0.003000 0.060000 0.120000
v 0.049092 0.139092 0.180000
v 0.010908 0.079092 0.120000
v 0.030000 0.087000 0.120000
v 0.049092 0.079092 0.120000
v 0.057000 0.060000 0.120000
v 0.030000 0.147000 0.180000
v 0.010908 0.139092 0.180000
v 0.049092 0.040908 0.120000
v -0.010908 0.040908 0.120000
v -0.003000 0.060000 0.120000
v 0.003000 0.120000 0.180000
v 0.010908 0.100908 0.180000
v 0.030000 0.093000 0.180000
v -0.010908 0.079092 0.120000
v 0.018545 0.108545 0.210000
v 0.013800 0.120000 0.210000
v -0.030000 0.087000 0.120000
v -0.049092 0.079092 0.120000
v -0.057000 0.060000 0.120000
v -0.049092 0.040908 0.120000
v -0.030000 0.033000 0.120000
v 0.018545 0.131455 0.210000
v 0.030000 0.136200 0.210000
v 0.041455 0.131455 0.210000
v 0.046200 0.120000 0.210000
v 0.041455 0.108545 0.210000
v 0.030000 0.103800 0.210000
v 0.090000 0.103800 0.210000
v 0.101455 0.108545 0.210000
v 0.106200 0.120000 0.210000
v 0.101455 0.131455 0.210000
v 0.090000 0.136200 0.210000
v 0.078545 0.131455 0.210000
v 0.073800 0.120000 0.210000
v 0.078545 0.108545 0.210000
v 0.090000 0.093000 0.180000
v 0.070908 0.100908 0.180000
v 0.063000 0.120000 0.180000
v 0.070908 0.139092 0.180000
v 0.090000 0.147000 0.180000
v 0.109092 0.139092 0.180000
v 0.117000 0.120000 0.180000
v 0.109092 0.100908 0.180000
v 0.090000 0.093000 0.120000
v 0.070908 0.100908 0.120000
v 0.063000 0.120000 0.120000
v 0.070908 0.139092 0.120000
v 0.090000 0.147000 0.120000
v 0.109092 0.139092 0.120000
v 0.117000 0.120000 0.120000
v 0.109092 0.100908 0.120000
v -0.010908 0.100908 0.180000
v -0.003000 0.120000 0.180000
v -0.010908 0.139092 0.180000
v -0.030000 0.147000 0.180000
v -0.049092 0.139092 0.180000
v -0.057000 0.120000 0.180000
v -0.049092 0.100908 0.180000
v -0.030000 0.093000 0.180000
v -0.041455 0.108545 0.210000
v -0.046200 0.120000 0.210000
v -0.041455 0.131455 0.210000
v -0.030000 0.136200 0.210000
v -0.018545 0.131455 0.210000
v -0.013800 0.120000 0.210000
v -0.018545 0.108545 0.210000
v -0.030000 0.103800 0.210000
v -0.090000 0.093000 0.120000
v -0.109092 0.100908 0.120000
v -0.117000 0.120000 0.120000
v -0.109092 0.139092 0.120000
v -0.090000 0.147000 0.120000
v -0.070908 0.139092 0.120000
v -0.063000 0.120000 0.120000
v -0.070908 0.100908 0.120000
v -0.070908 0.100908 0.180000
v -0.063000 0.120000 0.180000
v -0.070908 0.139092 0.180000
v -0.090000 0.147000 0.180000
v -0.109092 0.139092 0.180000
v -0.117000 0.120000 0.180000
v -0.109092 0.100908 0.180000
v -0.090000 0.093000 0.180000
v -0.101455 0.108545 0.210000
v -0.106200 0.120000 0.210000
v -0.101455 0.131455 0.210000
v -0.090000 0.136200 0.210000
v -0.078545 0.131455 0.210000
v -0.073800 0.120000 0.210000
v -0.078545 0.108545 0.210000
v -0.090000 0.103800 0.210000
v 0.090000 0.043800 0.210000
v 0.101455 0.048545 0.210000
v 0.106200 0.060000 0.210000
v 0.101455 0.071455 0.210000
v 0.090000 0.076200 0.210000
v 0.078545 0.071455 0.210000
v 0.073800 0.060000 0.210000
v 0.078545 0.048545 0.210000
v 0.090000 0.033000 0.180000
v 0.070908 0.040908 0.180000
v 0.063000 0.060000 0.180000
v 0.070908 0.079092 0.180000
v 0.090000 0.087000 0.180000
v 0.109092 0.079092 0.180000
v 0.117000 0.060000 0.180000
v 0.109092 0.040908 0.180000
v 0.090000 0.033000 0.120000
v 0.070908 0.040908 0.120000
v 0.063000 0.060000 0.120000
v 0.070908 0.079092 0.120000
v 0.090000 0.087000 0.120000
v 0.109092 0.079092 0.120000
v 0.117000 0.060000 0.120000
v 0.109092 0.040908 0.120000
v -0.010908 0.040908 0.180000
v -0.003000 0.060000 0.180000
v -0.010908 0.079092 0.180000
v -0.030000 0.087000 0.180000
v -0.049092 0.079092 0.180000
v -0.057000 0.060000 0.180000
v -0.049092 0.040908 0.180000
v -0.030000 0.033000 0.180000
v -0.041455 0.048545 0.210000
v -0.046200 0.060000 0.210000
v -0.041455 0.071455 0.210000
v -0.030000 0.076200 0.210000
v -0.018545 0.071455 0.210000
v -0.013800 0.060000 0.210000
v -0.018545 0.048545 0.210000
v -0.030000 0.043800 0.210000
v -0.090000 0.033000 0.120000
v -0.109092 0.040908 0.120000
v -0.117000 0.060000 0.120000
v -0.109092 0.079092 0.120000
v -0.090000 0.087000 0.120000
v -0.070908 0.079092 0.120000
v -0.063000 0.060000 0.120000
v -0.070908 0.040908 0.120000
v -0.070908 0.040908 0.180000
v -0.063000 0.060000 0.180000
v -0.070908 0.079092 0.180000
v -0.090000 0.087000 0.180000
v -0.109092 0.079092 0.180000
v -0.117000 0.060000 0.180000
v -0.109092 0.040908 0.180000
v -0.090000 0.033000 0.180000
v -0.101455 0.048545 0.210000
v -0.106200 0.060000 0.210000
v -0.101455 0.071455 0.210000
v -0.090000 0.076200 0.210000
v -0.078545 0.071455 0.210000
v -0.073800 0.060000 0.210000
v -0.078545 0.048545 0.210000
v -0.090000 0.043800 0.210000
vt 0.054688 0.664062
vt 0.054688 0.488281
vt 0.410156 0.488281
vt 0.410156 0.664062
vt 0.410156 0.191406
vt 0.410156 0.011719
vt 0.476562 0.031250
vt 0.476562 0.171875
vt 0.054688 0.191406
vt 0.054688 0.011719
vt 0.054688 0.960938
vt 0.011719 0.933594
vt 0.011719 0.695312
vt 0.410156 0.960938
vt 0.500000 0.453125
vt 0.644531 0.453125
vt 0.644531 0.691406
vt 0.500000 0.691406
vt 0.472656 0.695312
vt 0.472656 0.933594
vt 0.472656 0.218750
vt 0.472656 0.457031
vt 0.476562 0.503906
vt 0.476562 0.648438
vt 0.707031 0.429688
vt 0.589844 0.429688
vt 0.589844 0.339844
vt 0.707031 0.339844
vt 0.011719 0.457031
vt 0.011719 0.218750
vt 0.011719 0.160156
vt 0.011719 0.042969
vt 0.011719 0.636719
vt 0.011719 0.515625
vt 0.589844 0.101562
vt 0.707031 0.101562
vt 0.796875 0.101562
vt 0.796875 0.339844
vt 0.589844 0.011719
vt 0.707031 0.011719
vt 0.500000 0.339844
vt 0.500000 0.101562
vt 0.558594 0.789062
vt 0.558594 0.769531
vt 0.500000 0.769531
vt 0.500000 0.789062
vt 0.558594 0.769531
vt 0.558594 0.750000
vt 0.500000 0.750000
vt 0.500000 0.769531
vt 0.558594 0.789062
vt 0.500000 0.789062
vt 0.589844 0.812500
vt 0.558594 0.808594
vt 0.558594 0.832031
vt 0.589844 0.828125
vt 0.558594 0.750000
vt 0.500000 0.750000
vt 0.589844 0.812500
vt 0.558594 0.808594
vt 0.558594 0.832031
vt 0.589844 0.828125
vt 0.531250 0.917969
vt 0.539062 0.910156
vt 0.539062 0.894531
vt 0.531250 0.886719
vt 0.519531 0.886719
vt 0.511719 0.894531
vt 0.511719 0.910156
vt 0.519531 0.917969
vt 0.519531 0.917969
vt 0.531250 0.917969
vt 0.539062 0.910156
vt 0.539062 0.894531
vt 0.531250 0.886719
vt 0.519531 0.886719
vt 0.511719 0.894531
vt 0.511719 0.910156
vt 0.589844 0.792969
vt 0.589844 0.804688
vt 0.589844 0.812500
vt 0.558594 0.808594
vt 0.558594 0.832031
vt 0.589844 0.828125
vt 0.558594 0.726562
vt 0.558594 0.707031
vt 0.500000 0.707031
vt 0.500000 0.726562
vt 0.558594 0.871094
vt 0.558594 0.851562
vt 0.500000 0.851562
vt 0.500000 0.871094
vt 0.589844 0.855469
vt 0.558594 0.851562
vt 0.558594 0.871094
vt 0.589844 0.867188
vt 0.589844 0.753906
vt 0.589844 0.765625
vt 0.589844 0.773438
vt 0.589844 0.785156
vt 0.558594 0.726562
vt 0.500000 0.726562
vt 0.558594 0.789062
vt 0.558594 0.769531
vt 0.500000 0.769531
vt 0.500000 0.789062
vt 0.589844 0.730469
vt 0.589844 0.746094
vt 0.558594 0.789062
vt 0.558594 0.769531
vt 0.500000 0.769531
vt 0.500000 0.789062
vt 0.589844 0.835938
vt 0.589844 0.847656
vt 0.589844 0.855469
vt 0.589844 0.867188
vt 0.589844 0.710938
vt 0.589844 0.722656
vt 0.500000 0.851562
vt 0.500000 0.871094
vt 0.500000 0.808594
vt 0.500000 0.832031
vt 0.558594 0.707031
vt 0.500000 0.707031
vt 0.589844 0.812500
vt 0.558594 0.808594
vt 0.558594 0.832031
vt 0.589844 0.828125
vt 0.589844 0.773438
vt 0.589844 0.785156
vt 0.500000 0.808594
vt 0.500000 0.832031
vt 0.589844 0.730469
vt 0.589844 0.746094
vt 0.589844 0.753906
vt 0.589844 0.765625
vt 0.589844 0.710938
vt 0.589844 0.722656
vt 0.589844 0.792969
vt 0.589844 0.804688
vt 0.589844 0.835938
vt 0.589844 0.847656
vt 0.519531 0.917969
vt 0.531250 0.917969
vt 0.539062 0.910156
vt 0.539062 0.894531
vt 0.531250 0.886719
vt 0.519531 0.886719
vt 0.511719 0.894531
vt 0.511719 0.910156
vt 0.558594 0.769531
vt 0.558594 0.750000
vt 0.500000 0.750000
vt 0.500000 0.769531
vt 0.589844 0.812500
vt 0.558594 0.808594
vt 0.558594 0.832031
vt 0.589844 0.828125
vt 0.589844 0.855469
vt 0.558594 0.851562
vt 0.558594 0.871094
vt 0.589844 0.867188
vt 0.589844 0.730469
vt 0.558594 0.726562
vt 0.589844 0.746094
vt 0.589844 0.773438
vt 0.558594 0.789062
vt 0.589844 0.785156
vt 0.589844 0.792969
vt 0.589844 0.804688
vt 0.589844 0.835938
vt 0.589844 0.847656
vt 0.589844 0.710938
vt 0.558594 0.707031
vt 0.589844 0.722656
vt 0.589844 0.753906
vt 0.589844 0.765625
vt 0.500000 0.789062
vt 0.500000 0.808594
vt 0.500000 0.832031
vt 0.500000 0.851562
vt 0.500000 0.871094
vt 0.500000 0.726562
vt 0.500000 0.707031
vt 0.558594 0.750000
vt 0.500000 0.750000
vt 0.531250 0.917969
vt 0.539062 0.910156
vt 0.539062 0.894531
vt 0.531250 0.886719
vt 0.519531 0.886719
vt 0.511719 0.894531
vt 0.511719 0.910156
vt 0.519531 0.917969
vt 0.558594 0.871094
vt 0.558594 0.851562
vt 0.500000 0.851562
vt 0.500000 0.871094
vt 0.589844 0.773438
vt 0.589844 0.785156
vt 0.558594 0.726562
vt 0.500000 0.726562
vt 0.589844 0.730469
vt 0.589844 0.746094
vt 0.589844 0.855469
vt 0.589844 0.867188
vt 0.558594 0.707031
vt 0.500000 0.707031
vt 0.500000 0.808594
vt 0.500000 0.832031
vt 0.589844 0.753906
vt 0.589844 0.765625
vt 0.589844 0.710938
vt 0.589844 0.722656
vt 0.589844 0.792969
vt 0.589844 0.804688
vt 0.589844 0.835938
vt 0.589844 0.847656
vt 0.589844 0.812500
vt 0.558594 0.808594
vt 0.558594 0.832031
vt 0.589844 0.828125
vt 0.558594 0.789062
vt 0.558594 0.769531
vt 0.500000 0.769531
vt 0.500000 0.789062
vt 0.558594 0.750000
vt 0.500000 0.750000
vt 0.511719 0.894531
vt 0.511719 0.910156
vt 0.519531 0.917969
vt 0.531250 0.917969
vt 0.539062 0.910156
vt 0.539062 0.894531
vt 0.531250 0.886719
vt 0.519531 0.886719
vt 0.558594 0.871094
vt 0.558594 0.851562
vt 0.500000 0.851562
vt 0.500000 0.871094
vt 0.589844 0.773438
vt 0.589844 0.785156
vt 0.558594 0.726562
vt 0.500000 0.726562
vt 0.589844 0.730469
vt 0.589844 0.746094
vt 0.589844 0.855469
vt 0.589844 0.867188
vt 0.558594 0.707031
vt 0.500000 0.707031
vt 0.500000 0.808594
vt 0.500000 0.832031
vt 0.589844 0.753906
vt 0.589844 0.765625
vt 0.589844 0.710938
vt 0.589844 0.722656
vt 0.589844 0.792969
vt 0.589844 0.804688
vt 0.589844 0.835938
vt 0.589844 0.847656
vt 0.531250 0.917969
vt 0.539062 0.910156
vt 0.539062 0.894531
vt 0.531250 0.886719
vt 0.519531 0.886719
vt 0.511719 0.894531
vt 0.511719 0.910156
vt 0.519531 0.917969
vt 0.558594 0.769531
vt 0.558594 0.750000
vt 0.500000 0.750000
vt 0.500000 0.769531
vt 0.589844 0.812500
vt 0.558594 0.808594
vt 0.558594 0.832031
vt 0.589844 0.828125
vt 0.589844 0.855469
vt 0.558594 0.851562
vt 0.558594 0.871094
vt 0.589844 0.867188
vt 0.589844 0.730469
vt 0.558594 0.726562
vt 0.589844 0.746094
vt 0.589844 0.773438
vt 0.558594 0.789062
vt 0.589844 0.785156
vt 0.589844 0.792969
vt 0.589844 0.804688
vt 0.589844 0.835938
vt 0.589844 0.847656
vt 0.589844 0.710938
vt 0.558594 0.707031
vt 0.589844 0.722656
vt 0.589844 0.753906
vt 0.589844 0.765625
vt 0.500000 0.789062
vt 0.500000 0.808594
vt 0.500000 0.832031
vt 0.500000 0.851562
vt 0.500000 0.871094
vt 0.500000 0.726562
vt 0.500000 0.707031
vt 0.558594 0.750000
vt 0.500000 0.750000
vt 0.539062 0.894531
vt 0.531250 0.886719
vt 0.519531 0.886719
vt 0.511719 0.894531
vt 0.511719 0.910156
vt 0.519531 0.917969
vt 0.531250 0.917969
vt 0.539062 0.910156
vt 0.558594 0.871094
vt 0.558594 0.851562
vt 0.500000 0.851562
vt 0.500000 0.871094
vt 0.589844 0.773438
vt 0.589844 0.785156
vt 0.558594 0.726562
vt 0.500000 0.726562
vt 0.589844 0.730469
vt 0.589844 0.746094
vt 0.589844 0.855469
vt 0.589844 0.867188
vt 0.558594 0.707031
vt 0.500000 0.707031
vt 0.500000 0.808594
vt 0.500000 0.832031
vt 0.589844 0.753906
vt 0.589844 0.765625
vt 0.589844 0.710938
vt 0.589844 0.722656
vt 0.589844 0.792969
vt 0.589844 0.804688
vt 0.589844 0.835938
vt 0.589844 0.847656
vt 0.589844 0.812500
vt 0.558594 0.808594
vt 0.558594 0.832031
vt 0.589844 0.828125
vt 0.558594 0.789062
vt 0.558594 0.769531
vt 0.500000 0.769531
vt 0.500000 0.789062
vt 0.558594 0.750000
vt 0.500000 0.750000
vt 0.539062 0.910156
vt 0.539062 0.894531
vt 0.531250 0.886719
vt 0.519531 0.886719
vt 0.511719 0.894531
vt 0.511719 0.910156
vt 0.519531 0.917969
vt 0.531250 0.917969
vt 0.558594 0.871094
vt 0.558594 0.851562
vt 0.500000 0.851562
vt 0.500000 0.871094
vt 0.589844 0.773438
vt 0.589844 0.785156
vt 0.558594 0.726562
vt 0.500000 0.726562
vt 0.589844 0.730469
vt 0.589844 0.746094
vt 0.589844 0.855469
vt 0.589844 0.867188
vt 0.558594 0.707031
vt 0.500000 0.707031
vt 0.500000 0.808594
vt 0.500000 0.832031
vt 0.589844 0.753906
vt 0.589844 0.765625
vt 0.589844 0.710938
vt 0.589844 0.722656
vt 0.589844 0.792969
vt 0.589844 0.804688
vt 0.589844 0.835938
vt 0.589844 0.847656
vn -1.0000 0.0000 0.0000
vn 0.8944 0.0000 -0.4472
vn 1.0000 0.0000 0.0000
vn 0.0000 -0.7071 0.7071
vn 0.0000 -1.0000 0.0000
vn 0.0000 1.0000 0.0000
vn 0.0000 0.0000 -1.0000
vn 0.0000 -0.9578 -0.2873
vn 0.0000 0.9578 -0.2873
vn -0.8944 0.0000 -0.4472
vn 0.0000 0.7071 0.7071
vn 0.7071 0.0000 0.7071
vn -0.7071 0.0000 0.7071
vn 0.0000 0.0000 1.0000
vn -0.3827 -0.9239 0.0000
vn -0.9239 -0.3827 0.0000
vn 0.8767 -0.3631 0.3156
vn 0.3631 -0.8767 0.3156
vn -0.3827 0.9239 0.0000
vn 0.3827 0.9239 -0.0000
vn 0.3631 0.8767 0.3156
vn -0.8767 -0.3631 0.3156
vn -0.3631 -0.8767 0.3156
vn -0.9239 0.3827 0.0000
vn -0.8767 0.3631 0.3156
vn 0.8767 0.3631 0.3156
vn -0.3631 0.8767 0.3156
vn 0.3827 -0.9239 -0.0000
vn 0.9239 0.3827 -0.0000
vn 0.9239 -0.3827 -0.0000
usemtl mat_pod4
s off
f 1/1/1 2/2/1 4/3/1 3/4/1
f 8/5/2 7/6/2 11/7/2 12/8/2
f 7/6/3 8/5/3 6/9/3 5/10/3
f 1/1/4 5/11/4 15/12/4 13/13/4
f 3/4/5 7/14/5 5/11/5 1/1/5
f 8/5/6 4/3/6 2/2/6 6/9/6
f 9/15/7 10/16/7 12/17/7 11/18/7
f 7/14/8 3/4/8 9/19/8 11/20/8
f 4/3/9 8/5/9 12/21/9 10/22/9
f 3/4/10 4/3/10 10/23/10 9/24/10
f 15/25/1 16/26/1 19/27/1 20/28/1
f 6/9/11 2/2/11 14/29/11 16/30/11
f 5/10/12 6/9/12 16/31/12 15/32/12
f 2/2/13 1/1/13 13/33/13 14/34/13
f 20/28/14 19/27/14 18/35/14 17/36/14
f 13/37/6 15/38/6 20/28/6 17/36/6
f 14/39/3 13/40/3 17/36/3 18/35/3
f 16/41/5 14/42/5 18/35/5 19/27/5
f 70/43/15 69/44/15 45/45/15 46/46/15
f 35/47/16 49/48/16 57/49/16 56/50/16
f 34/51/15 35/47/15 56/50/15 55/52/15
f 83/53/17 47/54/17 48/55/17 82/56/17
f 69/44/16 68/57/16 44/58/16 45/45/16
f 23/59/17 54/60/17 53/61/17 24/62/17
f 21/63/14 23/64/14 24/65/14 25/66/14 26/67/14 31/68/14 32/69/14 33/70/14
f 84/71/14 83/72/14 82/73/14 81/74/14 80/75/14 79/76/14 73/77/14 72/78/14
f 21/79/18 34/51/18 54/60/18 23/80/18
f 123/81/17 109/82/17 110/83/17 122/84/17
f 50/85/19 51/86/19 60/87/19 59/88/19
f 63/89/20 58/90/20 41/91/20 42/92/20
f 25/93/21 52/94/21 51/95/21 26/96/21
f 32/97/22 49/48/22 35/47/22 33/98/22
f 72/99/23 69/44/23 70/43/23 84/100/23
f 68/57/24 64/101/24 43/102/24 44/58/24
f 116/103/15 115/104/15 27/105/15 22/106/15
f 79/107/25 64/101/25 68/57/25 73/108/25
f 180/109/15 179/110/15 77/111/15 78/112/15
f 24/113/26 53/61/26 52/94/26 25/114/26
f 81/115/21 58/90/21 63/89/21 80/116/21
f 49/48/24 50/85/24 59/88/24 57/49/24
f 26/117/27 51/86/27 50/85/27 31/118/27
f 51/95/20 52/94/20 61/119/20 60/120/20
f 54/60/28 34/51/28 55/52/28 65/121/28
f 52/94/29 53/61/29 62/122/29 61/119/29
f 64/101/19 63/123/19 42/124/19 43/102/19
f 187/125/17 173/126/17 174/127/17 186/128/17
f 33/129/23 35/47/23 34/51/23 21/130/23
f 54/60/30 65/121/30 62/122/30 53/61/30
f 47/54/30 39/131/30 40/132/30 48/55/30
f 31/133/25 50/85/25 49/48/25 32/134/25
f 47/54/28 70/43/28 46/46/28 39/131/28
f 73/135/22 68/57/22 69/44/22 72/136/22
f 58/90/29 48/55/29 40/132/29 41/91/29
f 80/137/27 63/123/27 64/101/27 79/138/27
f 84/139/18 70/43/18 47/54/18 83/140/18
f 82/141/26 48/55/26 58/90/26 81/142/26
f 85/143/14 86/144/14 87/145/14 88/146/14 89/147/14 90/148/14 91/149/14 92/150/14
f 94/151/16 95/152/16 103/153/16 102/154/16
f 86/155/17 100/156/17 99/157/17 87/158/17
f 88/159/21 98/160/21 97/161/21 89/162/21
f 90/163/25 96/164/25 95/152/25 91/165/25
f 92/166/23 94/151/23 93/167/23 85/168/23
f 85/169/18 93/167/18 100/156/18 86/170/18
f 87/171/26 99/157/26 98/160/26 88/172/26
f 89/173/27 97/174/27 96/164/27 90/175/27
f 91/176/22 95/152/22 94/151/22 92/177/22
f 100/156/28 93/167/28 101/178/28 108/179/28
f 100/156/30 108/179/30 107/180/30 99/157/30
f 97/161/20 98/160/20 106/181/20 105/182/20
f 95/152/24 96/164/24 104/183/24 103/153/24
f 98/160/29 99/157/29 107/180/29 106/181/29
f 96/164/19 97/174/19 105/184/19 104/183/19
f 93/167/15 94/151/15 102/154/15 101/178/15
f 115/104/16 114/185/16 28/186/16 27/105/16
f 124/187/14 123/188/14 122/189/14 121/190/14 120/191/14 119/192/14 118/193/14 117/194/14
f 112/195/20 111/196/20 36/197/20 30/198/20
f 117/199/23 115/104/23 116/103/23 124/200/23
f 114/185/24 113/201/24 29/202/24 28/186/24
f 119/203/25 113/201/25 114/185/25 118/204/25
f 121/205/21 111/196/21 112/195/21 120/206/21
f 113/201/19 112/207/19 30/208/19 29/202/19
f 109/82/30 38/209/30 37/210/30 110/83/30
f 109/82/28 116/103/28 22/106/28 38/209/28
f 118/211/22 114/185/22 115/104/22 117/212/22
f 111/196/29 110/83/29 37/210/29 36/197/29
f 120/213/27 112/207/27 113/201/27 119/214/27
f 124/215/18 116/103/18 109/82/18 123/216/18
f 122/217/26 110/83/26 111/196/26 121/218/26
f 147/219/17 133/220/17 134/221/17 146/222/17
f 140/223/15 139/224/15 126/225/15 125/226/15
f 139/224/16 138/227/16 127/228/16 126/225/16
f 148/229/14 147/230/14 146/231/14 145/232/14 144/233/14 143/234/14 142/235/14 141/236/14
f 136/237/20 135/238/20 130/239/20 129/240/20
f 141/241/23 139/224/23 140/223/23 148/242/23
f 138/227/24 137/243/24 128/244/24 127/228/24
f 143/245/25 137/243/25 138/227/25 142/246/25
f 145/247/21 135/238/21 136/237/21 144/248/21
f 137/243/19 136/249/19 129/250/19 128/244/19
f 133/220/30 132/251/30 131/252/30 134/221/30
f 133/220/28 140/223/28 125/226/28 132/251/28
f 142/253/22 138/227/22 139/224/22 141/254/22
f 135/238/29 134/221/29 131/252/29 130/239/29
f 144/255/27 136/249/27 137/243/27 143/256/27
f 148/257/18 140/223/18 133/220/18 147/258/18
f 146/259/26 134/221/26 135/238/26 145/260/26
f 149/261/14 150/262/14 151/263/14 152/264/14 153/265/14 154/266/14 155/267/14 156/268/14
f 158/269/16 159/270/16 167/271/16 166/272/16
f 150/273/17 164/274/17 163/275/17 151/276/17
f 152/277/21 162/278/21 161/279/21 153/280/21
f 154/281/25 160/282/25 159/270/25 155/283/25
f 156/284/23 158/269/23 157/285/23 149/286/23
f 149/287/18 157/285/18 164/274/18 150/288/18
f 151/289/26 163/275/26 162/278/26 152/290/26
f 153/291/27 161/292/27 160/282/27 154/293/27
f 155/294/22 159/270/22 158/269/22 156/295/22
f 164/274/28 157/285/28 165/296/28 172/297/28
f 164/274/30 172/297/30 171/298/30 163/275/30
f 161/279/20 162/278/20 170/299/20 169/300/20
f 159/270/24 160/282/24 168/301/24 167/271/24
f 162/278/29 163/275/29 171/298/29 170/299/29
f 160/282/19 161/292/19 169/302/19 168/301/19
f 157/285/15 158/269/15 166/272/15 165/296/15
f 179/110/16 178/303/16 76/304/16 77/111/16
f 188/305/14 187/306/14 186/307/14 185/308/14 184/309/14 183/310/14 182/311/14 181/312/14
f 176/313/20 175/314/20 71/315/20 74/316/20
f 181/317/23 179/110/23 180/109/23 188/318/23
f 178/303/24 177/319/24 75/320/24 76/304/24
f 183/321/25 177/319/25 178/303/25 182/322/25
f 185/323/21 175/314/21 176/313/21 184/324/21
f 177/319/19 176/325/19 74/326/19 75/320/19
f 173/126/30 66/327/30 67/328/30 174/127/30
f 173/126/28 180/109/28 78/112/28 66/327/28
f 182/329/22 178/303/22 179/110/22 181/330/22
f 175/314/29 174/127/29 67/328/29 71/315/29
f 184/331/27 176/325/27 177/319/27 183/332/27
f 188/333/18 180/109/18 173/126/18 187/334/18
f 186/335/26 174/127/26 175/314/26 185/336/26
f 211/337/17 197/338/17 198/339/17 210/340/17
f 204/341/15 203/342/15 190/343/15 189/344/15
f 203/342/16 202/345/16 191/346/16 190/343/16
f 212/347/14 211/348/14 210/349/14 209/350/14 208/351/14 207/352/14 206/353/14 205/354/14
f 200/355/20 199/356/20 194/357/20 193/358/20
f 205/359/23 203/342/23 204/341/23 212/360/23
f 202/345/24 201/361/24 192/362/24 191/346/24
f 207/363/25 201/361/25 202/345/25 206/364/25
f 209/365/21 199/356/21 200/355/21 208/366/21
f 201/361/19 200/367/19 193/368/19 192/362/19
f 197/338/30 196/369/30 195/370/30 198/339/30
f 197/338/28 204/341/28 189/344/28 196/369/28
f 206/371/22 202/345/22 203/342/22 205/372/22
f 199/356/29 198/339/29 195/370/29 194/357/29
f 208/373/27 200/367/27 201/361/27 207/374/27
f 212/375/18 204/341/18 197/338/18 211/376/18
f 210/377/26 198/339/26 199/356/26 209/378/26
